<svg width="60" height="60" viewBox="0 0 60 60" fill="none" xmlns="http://www.w3.org/2000/svg">
<path d="M59.1458 15.7549H59.1455L59.1436 15.7529L55.2707 15.2004C55.0758 15.1726 54.8934 15.0876 54.7467 14.9562C54.6001 14.8248 54.4957 14.6528 54.4468 14.462C54.3978 14.2713 54.4066 14.0703 54.4719 13.8845C54.5373 13.6987 54.6562 13.5365 54.8138 13.4183L57.9439 11.0707C58.1551 10.9123 58.2948 10.6764 58.3321 10.415C58.3694 10.1537 58.3014 9.88814 58.143 9.6769L54.5589 4.89811C54.4005 4.68687 54.1646 4.54722 53.9032 4.50988C53.6418 4.47254 53.3763 4.54056 53.1651 4.69899L50.036 7.04657C49.8785 7.16604 49.6891 7.23594 49.4918 7.24738C49.2945 7.25882 49.0982 7.21128 48.928 7.11081C48.7579 7.01034 48.6214 6.86148 48.5361 6.68321C48.4508 6.50493 48.4205 6.3053 48.449 6.10973L49.0026 2.23692C49.0211 2.1075 49.014 1.97569 48.9816 1.84902C48.9493 1.72235 48.8923 1.60329 48.8139 1.49865C48.7355 1.39401 48.6373 1.30584 48.5248 1.23916C48.4123 1.17248 48.2878 1.12861 48.1584 1.11004L48.1573 1.10992L42.2475 0.265664C42.1181 0.247079 41.9863 0.254167 41.8596 0.286525C41.7329 0.318882 41.6139 0.375875 41.5092 0.454248C41.4046 0.532622 41.3164 0.630842 41.2497 0.743299C41.183 0.855757 41.1391 0.980249 41.1205 1.10967V1.10992L40.567 4.98273C40.5392 5.17771 40.4542 5.36006 40.3228 5.50674C40.1914 5.65341 40.0194 5.75781 39.8286 5.80673C39.6379 5.85564 39.4369 5.84688 39.2511 5.78155C39.0653 5.71622 38.9031 5.59726 38.7849 5.4397L36.4383 2.30959C36.2799 2.09836 36.044 1.95871 35.7826 1.92137C35.5213 1.88403 35.2557 1.95205 35.0445 2.11048L32.0528 4.35552C30.6993 4.21165 29.3343 4.21165 27.9808 4.35552C19.1169 5.36864 12.1659 12.4375 11.3019 21.3172C11.275 21.599 11.265 21.8788 11.2511 22.1585H10.9524C10.7232 22.1589 10.5012 22.2384 10.3238 22.3835C10.1465 22.5286 10.0246 22.7304 9.97872 22.955L9.29077 26.2265L6.535 24.3259C6.34332 24.1936 6.11134 24.1328 5.87942 24.1539C5.64749 24.175 5.43031 24.2767 5.26564 24.4414L2.27889 27.4281C2.11447 27.5927 2.01289 27.8097 1.9918 28.0414C1.9707 28.2731 2.03142 28.5049 2.1634 28.6965L4.05501 31.4473L0.78253 32.1352C0.560395 32.1839 0.361614 32.3071 0.219247 32.4845C0.0768809 32.6618 -0.000490178 32.8825 2.33691e-06 33.1099V37.0922C-0.000100031 37.3208 0.0784061 37.5423 0.222344 37.7198C0.366281 37.8973 0.566889 38.0198 0.790495 38.0669L4.06297 38.7549L2.17137 41.5057C2.03938 41.6973 1.97866 41.929 1.99976 42.1607C2.02086 42.3924 2.12243 42.6094 2.28685 42.774L5.2736 45.7608C5.43827 45.9255 5.65546 46.0272 5.88738 46.0483C6.1193 46.0694 6.35128 46.0085 6.54297 45.8763L9.29376 43.9797L9.98171 47.2522C10.0275 47.4767 10.1494 47.6786 10.3268 47.8237C10.5042 47.9688 10.7262 48.0482 10.9554 48.0486H14.9377C15.1662 48.0487 15.3878 47.9702 15.5653 47.8263C15.7428 47.6824 15.8653 47.4817 15.9124 47.2581L16.6003 43.9857L19.3511 45.8773C19.5427 46.0093 19.7745 46.07 20.0062 46.0489C20.2379 46.0278 20.4549 45.9262 20.6195 45.7618L22.1656 44.2107V47.0481C22.1678 47.744 22.353 48.4271 22.7024 49.0289C23.0519 49.6307 23.5535 50.13 24.1568 50.4769V56.0083C24.1568 58.2077 25.9398 59.9906 28.1391 59.9906H32.1215C34.3208 59.9906 36.1038 58.2077 36.1038 56.0083V50.4769C36.7071 50.13 37.2087 49.6307 37.5582 49.0289C37.9076 48.4271 38.0928 47.744 38.095 47.0481V43.1076C38.1083 42.2916 38.326 41.492 38.7283 40.782C39.1306 40.072 39.7046 39.4743 40.3977 39.0436C41.224 38.5075 42.0075 37.9084 42.7413 37.2515L41.4132 35.7681C40.7568 36.3565 40.0554 36.8927 39.3155 37.372C38.3427 37.9826 37.5388 38.8277 36.9776 39.8299C36.4165 40.832 36.116 41.959 36.1038 43.1076V47.0481C36.1038 48.1478 35.2124 49.0392 34.1126 49.0392H26.148C25.0482 49.0392 24.1568 48.1478 24.1568 47.0481V43.0249C24.1455 41.8983 23.8501 40.7927 23.2981 39.8106C22.7461 38.8284 21.9553 38.0013 20.9988 37.4059C13.108 32.4476 10.7305 22.0315 15.6888 14.1406C17.2023 11.7318 19.3004 9.74471 21.7878 8.36414C24.2753 6.98357 27.0714 6.2543 29.9163 6.24413C29.9014 6.27959 29.8884 6.31582 29.8774 6.35265C29.8405 6.61405 29.9089 6.87941 30.0676 7.09038L32.4142 10.2195C32.535 10.3759 32.6054 10.5654 32.6161 10.7627C32.6268 10.9601 32.5772 11.1561 32.4739 11.3246C32.3744 11.4944 32.2265 11.6306 32.0492 11.7159C31.8718 11.8012 31.6731 11.8317 31.4783 11.8035L27.6055 11.2499C27.4761 11.2314 27.3443 11.2385 27.2176 11.2708C27.0909 11.3032 26.9719 11.3602 26.8672 11.4386C26.7626 11.517 26.6744 11.6152 26.6077 11.7277C26.5411 11.8401 26.4972 11.9646 26.4786 12.0941L26.4785 12.0952L25.6333 18.0079C25.5958 18.2693 25.6637 18.5348 25.822 18.7462C25.9803 18.9575 26.216 19.0973 26.4774 19.1348L26.4785 19.1349L30.3513 19.6885C30.5463 19.7162 30.7287 19.8012 30.8753 19.9326C31.022 20.0641 31.1264 20.236 31.1753 20.4268C31.2242 20.6176 31.2155 20.8186 31.1501 21.0044C31.0848 21.1902 30.9658 21.3524 30.8083 21.4706L27.6792 23.8172C27.4679 23.9756 27.3283 24.2114 27.291 24.4728C27.2536 24.7342 27.3216 24.9997 27.4801 25.211L31.0642 29.9898C31.2226 30.201 31.4584 30.3407 31.7198 30.378C31.9812 30.4153 32.2467 30.3473 32.458 30.1889L35.5881 27.8423C35.7456 27.7245 35.9345 27.656 36.1309 27.6455C36.3273 27.6349 36.5224 27.6827 36.6916 27.783C36.8608 27.8832 36.9966 28.0313 37.0817 28.2086C37.1669 28.3859 37.1976 28.5844 37.1701 28.7791L36.6175 32.652C36.5989 32.7814 36.606 32.9132 36.6384 33.0399C36.6707 33.1665 36.7277 33.2856 36.8061 33.3903C36.8845 33.4949 36.9827 33.5831 37.0951 33.6498C37.2076 33.7165 37.3321 33.7604 37.4615 33.7789H37.4618L43.3755 34.6242C43.4221 34.6302 43.469 34.6332 43.5159 34.6332C43.7556 34.6334 43.9874 34.5472 44.1687 34.3903C44.3499 34.2333 44.4685 34.0163 44.5025 33.7789L45.0551 29.9061C45.0828 29.7112 45.1678 29.5288 45.2992 29.3821C45.4307 29.2355 45.6026 29.1311 45.7934 29.0821C45.9842 29.0332 46.1852 29.042 46.371 29.1073C46.5568 29.1726 46.719 29.2916 46.8372 29.4492L49.1847 32.5783C49.3432 32.7895 49.579 32.9292 49.8404 32.9665C50.1018 33.0038 50.3673 32.9358 50.5786 32.7774L55.3574 29.1933C55.5686 29.0349 55.7082 28.799 55.7456 28.5376C55.7829 28.2762 55.7149 28.0107 55.5565 27.7995L53.2099 24.6704C53.0896 24.5137 53.0194 24.3243 53.0088 24.1271C52.9981 23.9298 53.0474 23.734 53.1502 23.5653C53.2475 23.3935 53.395 23.2556 53.573 23.1702C53.751 23.0847 53.9508 23.0559 54.1457 23.0874L58.0186 23.6399C58.148 23.6585 58.2798 23.6514 58.4065 23.6191C58.5331 23.5867 58.6522 23.5297 58.7569 23.4514C58.8615 23.373 58.9497 23.2748 59.0164 23.1623C59.0831 23.0498 59.127 22.9254 59.1455 22.7959V22.7957L59.9898 16.8819C60.0084 16.7525 60.0013 16.6207 59.9689 16.494C59.9366 16.3673 59.8796 16.2483 59.8012 16.1436C59.7228 16.039 59.6246 15.9508 59.5122 15.8841C59.3997 15.8174 59.2752 15.7735 59.1458 15.7549ZM26.148 51.0304H34.1126V53.0216H26.148V51.0304ZM26.148 55.0127H34.1126V56.0083C34.1126 57.1081 33.2212 57.9995 32.1215 57.9995H28.1391C27.0394 57.9995 26.148 57.1081 26.148 56.0083V55.0127ZM18.2221 37.8439C18.7657 38.2885 19.3338 38.7023 19.9236 39.0834C20.8643 39.6779 21.5724 40.5772 21.9297 41.6311L19.7942 43.7626L17.7263 42.337C16.8209 41.713 15.581 41.9412 14.9569 42.8467C14.8073 43.0638 14.7023 43.3085 14.648 43.5665L14.1263 46.0525H11.7598L11.2381 43.5705C11.0116 42.4944 9.9557 41.8056 8.8796 42.0321C8.62158 42.0864 8.37692 42.1914 8.15979 42.341L6.09097 43.7626L4.27702 41.9527L5.7017 39.8858C6.3263 38.9807 6.09881 37.7407 5.19371 37.1161C4.97643 36.9662 4.73149 36.8609 4.47315 36.8065L1.99117 36.2838V33.9183L4.47315 33.3957C5.54888 33.1675 6.23608 32.1106 6.00797 31.0348C5.95388 30.7796 5.85015 30.5375 5.7027 30.3223L4.27702 28.2495L6.09097 26.4395L8.16079 27.8652C9.06664 28.4886 10.3065 28.2596 10.9299 27.3537C11.0792 27.1368 11.184 26.8924 11.2381 26.6347L11.4124 25.8063C11.5719 26.9534 11.8361 28.0835 12.2019 29.1823C8.92602 29.5729 6.58702 32.5452 6.97754 35.821C7.36806 39.0969 10.3404 41.4358 13.6162 41.0453C14.5873 40.9295 15.5152 40.577 16.3183 40.0188C17.1214 39.4606 17.7751 38.7138 18.2221 37.8439ZM16.676 36.4411C15.9326 38.5076 13.6548 39.5801 11.5883 38.8368C9.52187 38.0933 8.44938 35.8155 9.19271 33.7491C9.47027 32.9775 9.97955 32.3107 10.6508 31.8398C11.3221 31.3689 12.1225 31.1171 12.9424 31.1188H12.9803C13.8958 33.0928 15.1462 34.8936 16.676 36.4411ZM57.3097 21.5253L54.4225 21.1132C52.7895 20.8799 51.2767 22.0148 51.0435 23.6477C50.9315 24.4318 51.1356 25.2284 51.611 25.8621L53.3602 28.1947L50.1744 30.5841L48.4241 28.2525C47.4345 26.9327 45.5624 26.665 44.2428 27.6546C43.6091 28.1298 43.1901 28.8373 43.0779 29.6214L42.6746 32.5126L38.7331 31.9491L39.1453 29.0619C39.3791 27.429 38.2449 25.9157 36.612 25.682C36.2236 25.6264 35.8279 25.6478 35.4477 25.7452C35.0676 25.8425 34.7103 26.0139 34.3964 26.2494L32.0637 27.9986L29.6743 24.8127L32.006 23.0625C33.3257 22.0729 33.5934 20.2008 32.6038 18.8812C32.1286 18.2475 31.4212 17.8284 30.6371 17.7162L27.7499 17.3041L28.3134 13.3625L31.2006 13.7747C32.8334 14.0086 34.3467 12.8743 34.5804 11.2415C34.6361 10.853 34.6146 10.4573 34.5173 10.0772C34.4199 9.69698 34.2486 9.33972 34.0131 9.02579L32.2579 6.69115L35.4437 4.30175L37.194 6.6344C38.1836 7.95417 40.0556 8.22186 41.3753 7.23225C42.009 6.75704 42.428 6.04959 42.5402 5.26548L42.9524 2.37829L46.8939 2.94079L46.4817 5.82798C46.2485 7.46098 47.3832 8.97377 49.0162 9.20699C49.8004 9.31899 50.597 9.1149 51.2307 8.63951L53.5633 6.89027L55.9527 10.0761L53.6201 11.8264C52.3003 12.816 52.0326 14.688 53.0222 16.0077C53.4974 16.6414 54.2049 17.0604 54.989 17.1726L57.8762 17.5848L57.3097 21.5253Z" fill="white"/>
<path d="M42.81 9.47879C38.4113 9.47879 34.8454 13.0447 34.8454 17.4434C34.8454 21.8422 38.4113 25.4081 42.81 25.4081C47.2087 25.4081 50.7747 21.8422 50.7747 17.4434C50.7697 13.0467 47.2068 9.48364 42.81 9.47879ZM42.81 23.4169C39.5109 23.4169 36.8365 20.7426 36.8365 17.4434C36.8365 14.1443 39.5109 11.4699 42.81 11.4699C46.1091 11.4699 48.7835 14.1443 48.7835 17.4434C48.7797 20.7409 46.1075 23.4131 42.81 23.4169ZM29.1347 44.0613H31.1259V47.0481H29.1347V44.0613ZM25.7756 34.2837C19.6298 31.8829 16.5939 24.9544 18.9948 18.8085C19.9252 16.4271 21.5949 14.407 23.7586 13.045L22.6943 11.3604C16.1812 15.4636 14.2275 24.0698 18.3306 30.5829C19.9198 33.1054 22.2758 35.0518 25.0528 36.1365C27.5109 37.0783 29.1341 39.4378 29.1347 42.0702H31.1259C31.129 38.6165 29.0007 35.5191 25.7756 34.2837ZM49.0463 37.0923H56.0154V39.0834H49.0463V37.0923ZM47.4137 43.83L48.6882 42.3001L54.6622 47.2773L53.3876 48.807L47.4137 43.83ZM43.0728 45.0569H45.064V52.026H43.0728V45.0569ZM1.0166 17.2094L8.98076 15.2187L9.46337 17.1493L1.49921 19.1402L1.0166 17.2094ZM2.67039 7.03973L3.82713 5.42029L10.7956 10.3977L9.63897 12.0171L2.67039 7.03973ZM11.2007 0.500999L13.1296 0.0078125L15.1659 7.97185L13.237 8.46503L11.2007 0.500999Z" fill="white"/>
</svg>
