<svg width="60" height="60" viewBox="0 0 60 60" fill="none" xmlns="http://www.w3.org/2000/svg">
<path d="M11.288 40.5907C11.288 40.3732 11.3744 40.1645 11.5282 40.0107C11.6821 39.8568 11.8907 39.7704 12.1083 39.7704H31.9404C32.158 39.7704 32.3666 39.8568 32.5204 40.0107C32.6743 40.1645 32.7607 40.3732 32.7607 40.5907C32.7607 40.8083 32.6743 41.0169 32.5204 41.1708C32.3666 41.3246 32.158 41.411 31.9404 41.411H12.1083C11.8907 41.411 11.6821 41.3246 11.5282 41.1708C11.3744 41.0169 11.288 40.8083 11.288 40.5907ZM12.1083 35.3295H26.5962C26.8137 35.3295 27.0224 35.243 27.1762 35.0892C27.3301 34.9354 27.4165 34.7267 27.4165 34.5092C27.4165 34.2916 27.3301 34.083 27.1762 33.9291C27.0224 33.7753 26.8137 33.6888 26.5962 33.6888H12.1083C11.8907 33.6888 11.6821 33.7753 11.5282 33.9291C11.3744 34.083 11.288 34.2916 11.288 34.5092C11.288 34.7267 11.3744 34.9354 11.5282 35.0892C11.6821 35.243 11.8907 35.3295 12.1083 35.3295ZM45.685 47.3115V57.0451C45.685 58.093 44.8325 58.9454 43.7846 58.9454H30.7103C29.6624 58.9454 28.81 58.093 28.81 57.0451V51.1014C26.6333 51.607 24.356 51.8637 22.0243 51.8637C21.0578 51.8637 20.0863 51.8185 19.1319 51.7292L9.00012 58.798C8.86411 58.893 8.70249 58.9445 8.53661 58.9457C8.37072 58.9468 8.20839 58.8976 8.07105 58.8046C7.9337 58.7116 7.82774 58.5792 7.76716 58.4248C7.70657 58.2704 7.6942 58.1013 7.73168 57.9397L9.7657 49.1774C4.29727 46.4947 1.05469 42.1858 1.05469 37.5499C1.05469 34.3706 2.53594 31.3655 5.33824 28.8594C8.01926 26.4619 11.6675 24.7317 15.8888 23.8561C16.1014 23.8128 16.3226 23.8555 16.5039 23.9749C16.6852 24.0943 16.8117 24.2807 16.8558 24.4933C16.8999 24.7058 16.8579 24.9271 16.7392 25.1088C16.6204 25.2905 16.4344 25.4177 16.222 25.4625C12.3396 26.2678 8.86266 27.9086 6.43195 30.0823C3.98742 32.2684 2.69531 34.8506 2.69531 37.5499C2.69531 41.694 5.82012 45.5901 11.0542 47.9717C11.2266 48.0501 11.3666 48.1858 11.4503 48.3557C11.534 48.5256 11.5563 48.7193 11.5134 48.9038L9.8127 56.2304L18.4417 50.2101C18.6033 50.0975 18.7999 50.0466 18.9959 50.0669C20.002 50.1709 21.0128 50.2229 22.0243 50.2228C24.3643 50.2228 26.6435 49.9503 28.81 49.4138V47.3114C28.81 46.2635 29.6624 45.4111 30.7103 45.4111H37.1584C39.8658 43.1747 41.3534 40.3924 41.3534 37.5498C41.3534 34.5126 39.6704 31.5681 36.6145 29.2589C36.5274 29.1944 36.4539 29.1133 36.3983 29.0202C36.3427 28.9272 36.3061 28.824 36.2906 28.7167C36.2751 28.6094 36.281 28.5001 36.3081 28.3951C36.3351 28.2901 36.3826 28.1915 36.448 28.105C36.5134 28.0185 36.5952 27.9458 36.6889 27.8911C36.7825 27.8364 36.886 27.8009 36.9935 27.7865C37.1009 27.7721 37.2102 27.7791 37.3149 27.8072C37.4196 27.8353 37.5178 27.8838 37.6036 27.9501C41.0796 30.5767 42.994 33.9859 42.994 37.5498C42.994 40.3616 41.7911 43.094 39.5685 45.4111H43.7845C44.8324 45.4111 45.685 46.2637 45.685 47.3115ZM44.0443 47.3115C44.0443 47.1708 43.9254 47.0519 43.7846 47.0519H30.7103C30.5695 47.0519 30.4506 47.1708 30.4506 47.3115V57.0451C30.4506 57.1859 30.5695 57.3048 30.7103 57.3048H43.7846C43.9254 57.3048 44.0443 57.1859 44.0443 57.0451V47.3115ZM40.4082 52.1782C40.4082 52.3222 40.3703 52.4637 40.2984 52.5884C40.2264 52.7131 40.1228 52.8166 39.9981 52.8886L35.3171 55.5911C35.1924 55.6631 35.051 55.701 34.907 55.701C34.763 55.701 34.6215 55.6631 34.4968 55.5911C34.3721 55.5191 34.2686 55.4155 34.1966 55.2908C34.1246 55.1661 34.0867 55.0247 34.0867 54.8807V49.4756C34.0866 49.3316 34.1245 49.1902 34.1965 49.0654C34.2685 48.9407 34.3721 48.8371 34.4968 48.7651C34.6215 48.6931 34.763 48.6552 34.907 48.6553C35.051 48.6553 35.1925 48.6932 35.3171 48.7653L39.9981 51.4678C40.1228 51.5398 40.2263 51.6434 40.2983 51.7681C40.3703 51.8928 40.4082 52.0342 40.4082 52.1782ZM37.9473 52.1782L35.7273 50.8965V53.4599L37.9473 52.1782ZM53.5916 9.62849C53.7354 9.62852 53.8766 9.59056 54.0011 9.51846L57.1692 7.68939C57.2633 7.63592 57.3458 7.56438 57.4121 7.47888C57.4784 7.39338 57.5271 7.29561 57.5554 7.19121C57.5838 7.08681 57.5912 6.97783 57.5772 6.87055C57.5633 6.76327 57.5283 6.6598 57.4742 6.56612C57.4201 6.47243 57.348 6.39036 57.2621 6.32465C57.1761 6.25894 57.078 6.21087 56.9734 6.18322C56.8689 6.15557 56.7598 6.14888 56.6526 6.16353C56.5455 6.17819 56.4422 6.2139 56.3489 6.26861L53.1807 8.09767C53.0243 8.18797 52.902 8.32741 52.8328 8.49433C52.7637 8.66125 52.7516 8.84633 52.7985 9.02082C52.8453 9.19532 52.9484 9.34947 53.0918 9.45935C53.2353 9.56923 53.4109 9.62869 53.5916 9.62849ZM48.311 5.92748C48.4043 5.98142 48.5073 6.01644 48.6141 6.03054C48.7209 6.04464 48.8295 6.03755 48.9335 6.00966C49.0376 5.98178 49.1352 5.93365 49.2206 5.86803C49.3061 5.80241 49.3778 5.72059 49.4316 5.62724L51.3611 2.28529C51.4158 2.19196 51.4515 2.08874 51.4661 1.98155C51.4808 1.87436 51.4741 1.76534 51.4464 1.66075C51.4188 1.55616 51.3707 1.45807 51.305 1.37214C51.2393 1.2862 51.1572 1.21411 51.0635 1.16002C50.9699 1.10592 50.8664 1.0709 50.7591 1.05695C50.6518 1.04301 50.5429 1.05042 50.4385 1.07877C50.334 1.10711 50.2363 1.15583 50.1508 1.22211C50.0653 1.28839 49.9937 1.37093 49.9403 1.46498L48.0108 4.80693C47.902 4.99534 47.8725 5.21924 47.9288 5.42938C47.9851 5.63953 48.1226 5.8187 48.311 5.92748ZM53.4457 14.8208C53.4457 15.0384 53.5321 15.247 53.686 15.4009C53.8398 15.5547 54.0485 15.6411 54.266 15.6411H58.125C58.3426 15.6411 58.5512 15.5547 58.705 15.4009C58.8589 15.247 58.9453 15.0384 58.9453 14.8208C58.9453 14.6033 58.8589 14.3946 58.705 14.2408C58.5512 14.087 58.3426 14.0005 58.125 14.0005H54.266C54.0485 14.0005 53.8398 14.087 53.686 14.2408C53.5321 14.3946 53.4457 14.6033 53.4457 14.8208ZM18.692 23.8234C19.1282 22.1953 20.1673 20.8376 21.618 20.0001L25.9088 17.5228C26.002 17.4689 26.105 17.4339 26.2118 17.4199C26.3186 17.4058 26.4272 17.4129 26.5312 17.4408C26.6133 17.463 26.6915 17.4978 26.7629 17.5439C31.1725 14.2438 34.6494 10.4233 36.6413 6.68381L36.5658 6.55314C35.6363 4.94322 36.1898 2.8772 37.7998 1.94756C39.4099 1.01814 41.4758 1.57174 42.4054 3.18154L45.7527 8.97928C47.5307 8.05947 49.743 8.69428 50.7541 10.4458C51.7652 12.1971 51.2088 14.4301 49.5234 15.5104L52.8708 21.3081C53.3197 22.0856 53.4382 22.9938 53.2046 23.8657C52.971 24.7375 52.4142 25.4649 51.6367 25.9138C51.1278 26.209 50.55 26.3645 49.9617 26.3647C49.6676 26.3647 49.3713 26.326 49.0792 26.2477C48.2074 26.0141 47.48 25.4572 47.0312 24.6798L46.9557 24.5492C42.7586 24.4055 37.7617 25.4861 32.7431 27.6176L38.666 35.5901C39.2571 36.3858 39.1534 37.4844 38.4247 38.1456L37.1217 39.328C36.9244 39.5068 36.6919 39.6424 36.4392 39.7263C36.1865 39.8102 35.9191 39.8405 35.6541 39.8153C35.3927 39.79 35.1395 39.7105 34.9106 39.5818C34.6817 39.4531 34.4821 39.2781 34.3247 39.068L28.1283 30.7765L27.9121 30.9013C26.9479 31.4579 25.8755 31.7424 24.7867 31.7424C24.2299 31.7419 23.6755 31.6684 23.1379 31.5237C21.5098 31.0875 20.152 30.0483 19.3145 28.5976C18.4768 27.1469 18.2558 25.4514 18.692 23.8234ZM37.3489 36.5684L31.5698 28.7894L29.559 29.9503L35.6389 38.086C35.6592 38.1134 35.6851 38.1362 35.7149 38.1528C35.7447 38.1695 35.7777 38.1795 35.8117 38.1823C35.8561 38.1865 35.9418 38.1832 36.0192 38.1129L37.3221 36.9306C37.4245 36.8377 37.4359 36.6853 37.3489 36.5684ZM46.5752 10.404L48.7009 14.0857C49.6032 13.4603 49.892 12.2337 49.3334 11.2661C48.7747 10.2986 47.568 9.93529 46.5752 10.404ZM37.9866 5.73283L48.4519 23.8594C48.6817 24.2574 49.0552 24.5427 49.5037 24.6628C49.9522 24.7828 50.4183 24.7227 50.8164 24.4929C51.2143 24.2632 51.4997 23.8896 51.6199 23.4412C51.74 22.9927 51.6797 22.5265 51.45 22.1285L40.9846 4.00197C40.6644 3.44732 40.0813 3.13689 39.4827 3.13689C39.1893 3.13689 38.8921 3.21142 38.6202 3.36845C38.2222 3.59814 37.9369 3.97174 37.8168 4.42021C37.6966 4.86869 37.7569 5.33486 37.9866 5.73283ZM27.6626 18.9198L31.8696 26.2068C36.7898 24.0871 41.7255 22.9345 46.0022 22.8976L37.5947 8.3351C35.4245 12.0203 31.9584 15.7186 27.6626 18.9198ZM20.7352 27.7772C21.3536 28.8484 22.3576 29.6161 23.5623 29.9388C24.7669 30.2617 26.0203 30.0988 27.0915 29.4804L30.6718 27.4133L26.0186 19.3537L22.4382 21.4207C21.367 22.0391 20.5995 23.0432 20.2766 24.2479C19.9537 25.4526 20.1168 26.7061 20.7352 27.7772ZM5.55504 10.5378C5.55504 7.79041 7.79016 5.55517 10.5376 5.55517C13.2851 5.55517 15.5202 7.79029 15.5202 10.5378C15.5202 13.2851 13.2851 15.5202 10.5376 15.5202C7.79016 15.5202 5.55504 13.2851 5.55504 10.5378ZM7.19566 10.5378C7.19566 12.3805 8.69484 13.8796 10.5376 13.8796C12.3804 13.8796 13.8796 12.3805 13.8796 10.5378C13.8796 8.69498 12.3804 7.1958 10.5376 7.1958C8.69484 7.1958 7.19566 8.69498 7.19566 10.5378ZM1.05469 11.404V9.6715C1.05469 8.90533 1.67789 8.28213 2.44395 8.28213C3.12246 8.28213 3.39012 7.76345 3.45586 7.60443C3.52172 7.44541 3.69937 6.88935 3.21949 6.40959C3.09005 6.2809 2.98743 6.1278 2.91757 5.95917C2.84771 5.79055 2.81199 5.60973 2.8125 5.42721C2.8125 5.05607 2.95699 4.70709 3.21949 4.44471L4.44445 3.21963C4.98609 2.67787 5.86758 2.67787 6.40934 3.21963C6.88922 3.69951 7.44527 3.52185 7.60418 3.45599C7.7632 3.39013 8.28187 3.1226 8.28187 2.44408C8.28187 1.67791 8.90508 1.05471 9.67113 1.05471H11.4036C12.1697 1.05471 12.7929 1.67791 12.7929 2.44408C12.7929 3.1226 13.3116 3.39013 13.4706 3.45599C13.6295 3.52185 14.1858 3.69928 14.6654 3.21963C15.2072 2.67787 16.0886 2.67787 16.6303 3.21963L17.8554 4.44471C18.1178 4.70709 18.2623 5.05595 18.2623 5.42709C18.2623 5.79822 18.1178 6.1472 17.8553 6.40959C17.3755 6.88935 17.5532 7.44541 17.619 7.60443C17.6849 7.76334 17.9524 8.28213 18.6309 8.28213C19.397 8.28213 20.0202 8.90533 20.0202 9.6715V11.404C20.0202 12.1701 19.397 12.7933 18.6309 12.7933C17.9524 12.7933 17.6848 13.3119 17.619 13.471C17.5532 13.6299 17.3755 14.186 17.8554 14.6658C18.3971 15.2076 18.3971 16.089 17.8554 16.6307L16.6303 17.8558C16.368 18.1181 16.0191 18.2628 15.6479 18.2628C15.2768 18.2628 14.9278 18.1183 14.6654 17.8558C14.1857 17.3761 13.6297 17.5535 13.4706 17.6195C13.3117 17.6854 12.7929 17.9529 12.7929 18.6315C12.7929 19.3976 12.1697 20.0208 11.4036 20.0208H9.67137C8.90531 20.0208 8.28211 19.3976 8.28211 18.6315C8.28211 17.9515 7.76379 17.684 7.605 17.6182C7.44598 17.5524 6.89039 17.3749 6.40957 17.8559C6.1473 18.1183 5.79832 18.2629 5.42719 18.2629C5.05605 18.2629 4.70695 18.1184 4.44469 17.8559L3.21973 16.6309C3.09028 16.5022 2.98766 16.3491 2.9178 16.1804C2.84794 16.0118 2.81223 15.831 2.81273 15.6484C2.81273 15.2773 2.95723 14.9283 3.21973 14.6659C3.69949 14.1862 3.52184 13.6301 3.45598 13.4712C3.39012 13.3122 3.12258 12.7935 2.44406 12.7935C1.67789 12.7933 1.05469 12.1701 1.05469 11.404ZM2.69531 11.1635C3.71379 11.2522 4.5723 11.8787 4.97168 12.8432C5.37117 13.8076 5.20711 14.8578 4.54957 15.6407L5.43469 16.5258C6.2182 15.8676 7.26855 15.7031 8.23266 16.1024C9.19687 16.5018 9.82312 17.3608 9.91172 18.3803H11.1633C11.252 17.3618 11.8785 16.5033 12.8429 16.1038C13.8073 15.7045 14.8574 15.8684 15.6404 16.5258L16.5255 15.6407C15.868 14.8578 15.7041 13.8076 16.1034 12.8432C16.5029 11.8788 17.3613 11.2522 18.3798 11.1635V9.91197C17.3613 9.82326 16.5028 9.19678 16.1034 8.23232C15.7041 7.26787 15.868 6.21787 16.5254 5.43482L15.6403 4.54971C14.8571 5.20713 13.8071 5.37107 12.8428 4.9717C11.8785 4.5722 11.252 3.71381 11.1633 2.69533H9.91172C9.82301 3.71381 9.19652 4.57232 8.23219 4.9717C7.26773 5.37119 6.21762 5.20713 5.43469 4.54959L4.54957 5.4347C5.20699 6.21787 5.37105 7.26787 4.97156 8.2322C4.5723 9.19678 3.71379 9.82326 2.69531 9.91197V11.1635ZM58.8809 32.9733C58.5913 35.4024 57.4233 37.7132 56.7527 38.8744C56.0822 40.0356 54.6652 42.2025 52.7064 43.6678C51.4364 44.6179 50.1575 45.0958 48.9184 45.0958C48.0531 45.0958 47.207 44.8628 46.3966 44.3949L46.102 44.2247C45.6166 43.9445 45.2694 43.4913 45.1239 42.9484C44.9784 42.4056 45.0526 41.8395 45.3328 41.3542L46.5107 39.3141C47.0899 38.3106 48.3777 37.9656 49.3812 38.5449L50.0721 38.9438C50.2679 39.057 50.4997 39.0187 50.649 38.8486C51.2932 38.1141 51.8865 37.2797 52.4126 36.3686C52.9386 35.4574 53.3646 34.5263 53.6786 33.6013C53.7512 33.3871 53.6685 33.1671 53.4727 33.054L52.7817 32.6553C52.2963 32.3751 51.9491 31.9218 51.8036 31.379C51.6581 30.8362 51.7323 30.2699 52.0125 29.7846L53.1903 27.7445C53.7695 26.7412 55.0573 26.3962 56.0609 26.9753L56.3556 27.1454C58.3266 28.2833 59.1997 30.2985 58.8809 32.9733ZM55.5353 28.5662L55.2407 28.3961C55.1348 28.3351 55.0091 28.3187 54.8911 28.3503C54.7731 28.3819 54.6725 28.459 54.6112 28.5647L53.4334 30.6048C53.4032 30.6572 53.3836 30.715 53.3759 30.775C53.3682 30.8349 53.3724 30.8958 53.3884 30.9542C53.4037 31.0127 53.4305 31.0675 53.4672 31.1156C53.5039 31.1637 53.5498 31.204 53.6021 31.2342L54.2931 31.633C55.1723 32.1408 55.5586 33.1669 55.2322 34.1284C54.8838 35.155 54.4132 36.1846 53.8335 37.1888C53.2539 38.1927 52.5974 39.1151 51.8825 39.9304C51.2129 40.694 50.1313 40.8723 49.2519 40.3647L48.561 39.9659C48.4551 39.9049 48.3294 39.8884 48.2113 39.92C48.0933 39.9516 47.9927 40.0288 47.9314 40.1345L46.7536 42.1746C46.7234 42.227 46.7038 42.2848 46.6961 42.3448C46.6884 42.4048 46.6926 42.4657 46.7086 42.524C46.7239 42.5825 46.7507 42.6374 46.7874 42.6854C46.8241 42.7335 46.87 42.7738 46.9223 42.804L47.217 42.9742C48.6139 43.7807 50.088 43.5778 51.7236 42.3542C53.5121 41.0162 54.8428 38.9013 55.3321 38.0541C55.8212 37.2069 56.9875 34.9969 57.2518 32.7791C57.4936 30.7507 56.9321 29.3727 55.5353 28.5662Z" fill="white"/>
</svg>
