<svg width="60" height="60" viewBox="0 0 60 60" fill="none" xmlns="http://www.w3.org/2000/svg">
<path d="M15.3544 28.669C15.3426 28.9236 15.2301 29.1631 15.0417 29.3347C14.8533 29.5064 14.6045 29.5962 14.3499 29.5844C14.0953 29.5726 13.8558 29.4601 13.6841 29.2718C13.5124 29.0834 13.4226 28.8345 13.4344 28.5799C13.4394 28.4532 13.4694 28.3288 13.5227 28.2138C13.576 28.0988 13.6515 27.9955 13.7449 27.9098C13.8383 27.8241 13.9478 27.7577 14.0669 27.7144C14.1861 27.6712 14.3126 27.652 14.4392 27.6579C14.5659 27.6637 14.6901 27.6946 14.8047 27.7487C14.9194 27.8027 15.0222 27.879 15.1072 27.973C15.1923 28.0669 15.2579 28.1768 15.3004 28.2963C15.3428 28.4157 15.3611 28.5424 15.3544 28.669ZM55.0547 43.5345C54.8009 44.1098 54.3395 44.5514 53.7557 44.7777L50.8718 45.8958C50.6018 46.0007 50.3147 46.0546 50.025 46.0547C49.0828 46.0547 48.1917 45.484 47.8312 44.5541L47.6265 44.0264L45.4909 44.9175C45.5819 45.5793 45.4635 46.2607 45.136 46.8562C44.7325 47.5899 44.0673 48.1238 43.2607 48.3623C43.4821 49.1356 43.4123 49.9902 42.9982 50.7426C42.3794 51.8681 41.1696 52.4668 39.9648 52.3656C39.9751 52.91 39.8421 53.4476 39.5794 53.9245C39.1726 54.6642 38.4995 55.2009 37.684 55.4356C37.2353 55.5659 36.7631 55.5947 36.3019 55.5197C36.2922 56.0266 36.1593 56.5236 35.9146 56.9678C35.5076 57.7076 34.8058 58.2633 33.989 58.4922C33.7117 58.5704 33.4251 58.6101 33.137 58.6105C32.6025 58.6107 32.0773 58.4702 31.6142 58.2033L30.9174 57.8031C30.5112 58.3336 29.9502 58.724 29.2955 58.9224C28.9899 59.0155 28.6723 59.0629 28.3528 59.0632C27.8309 59.0632 27.3146 58.9351 26.8426 58.6828C26.1994 58.3397 25.692 57.788 25.4038 57.1183C24.5569 57.4394 23.5844 57.4035 22.7389 56.9512C22.1645 56.6436 21.6973 56.1685 21.3992 55.5892C20.4989 56.0301 19.409 56.0481 18.4622 55.5417C17.7058 55.137 17.1514 54.4598 16.9013 53.6347C16.7751 53.2214 16.7332 52.787 16.7781 52.3572C16.275 52.3462 15.7815 52.2169 15.3376 51.9795C14.5812 51.5749 14.0268 50.8977 13.7768 50.0724C13.5266 49.2472 13.6118 48.3761 14.0164 47.6197L14.7647 46.2204C14.6021 45.8127 14.5185 45.3754 14.4389 44.9476C14.3023 44.2135 14.1911 43.7239 13.8998 43.6108C13.7646 43.5583 13.4501 43.4277 12.3315 42.9297L12.0712 43.5188C11.6833 44.396 10.8208 44.9188 9.91831 44.9188C9.60132 44.9188 9.27963 44.8543 8.97167 44.7183L6.14253 43.4679C5.56983 43.2147 5.12932 42.7524 4.90245 42.1659C4.67557 41.5794 4.68999 40.9411 4.94311 40.3684L11.4386 25.6724C11.6917 25.0997 12.154 24.6593 12.7405 24.4323C13.3268 24.2053 13.9651 24.2197 14.5381 24.4729L17.3672 25.7233C18.5523 26.247 19.0905 27.6375 18.5666 28.8227L18.1299 29.8108L19.858 30.6081C19.8808 30.6186 19.9031 30.6301 19.9251 30.6423C20.894 31.1876 21.9294 30.9447 23.2403 30.6375C24.9945 30.2263 27.1497 29.7217 29.671 31.1747C33.1559 29.0529 35.8316 30.1436 37.8095 30.9521C39.2391 31.5364 40.0883 31.8458 40.9191 31.4137L42.4244 30.6079L42.023 29.5726C41.5547 28.3643 42.1567 27.0003 43.3646 26.5319L46.2487 25.414C46.8325 25.1876 47.4709 25.2029 48.0461 25.4566C48.6214 25.7106 49.0629 26.1718 49.2892 26.7555L55.097 41.7367C55.3238 42.3208 55.3087 42.9592 55.0547 43.5345ZM10.3566 42.7609L16.8519 28.0649C16.9203 27.9102 16.8856 27.7712 16.859 27.7019C16.8321 27.6328 16.7642 27.5066 16.6096 27.4383L13.7803 26.1879C13.7213 26.1616 13.6574 26.148 13.5928 26.148C13.5184 26.148 13.4567 26.1657 13.4175 26.181C13.3484 26.2078 13.2222 26.2756 13.1539 26.4303L6.6585 41.1263C6.59007 41.281 6.62475 41.4201 6.65147 41.4893C6.67819 41.5584 6.74616 41.6846 6.90085 41.7529L9.7301 43.0033C9.96542 43.1075 10.2524 42.9963 10.3566 42.7609ZM17.666 50.2132L19.5012 47.0374C19.7761 46.3978 19.5171 45.648 18.9011 45.3192C18.2458 44.9694 17.4279 45.2168 17.0781 45.871L15.6699 48.504C15.5014 48.8189 15.4664 49.1827 15.5712 49.5287C15.6761 49.8746 15.9072 50.1579 16.2221 50.3263C16.6848 50.5736 17.2494 50.5249 17.666 50.2132ZM21.174 53.3267L23.2118 49.3803C23.3152 48.8115 23.037 48.2196 22.5257 47.9467C22.0589 47.6974 21.4901 47.7483 21.0727 48.0656L18.7948 52.0661C18.6263 52.3811 18.5914 52.7449 18.6961 53.0908C18.801 53.4368 19.0321 53.72 19.347 53.8884C20.0011 54.2383 20.8205 53.9863 21.174 53.3267ZM25.3211 54.9345L27.1233 51.471C27.226 50.9025 26.9478 50.3113 26.4368 50.0386C25.9279 49.7669 25.2864 49.8599 24.8713 50.2531L22.9157 54.0404C22.8903 54.558 23.1628 55.0516 23.6233 55.2979C24.2017 55.6072 24.9216 55.4495 25.3211 54.9345ZM29.5494 56.4771L30.8996 53.9522C31.1425 53.4979 31.1002 52.9335 30.7917 52.5139C30.6745 52.3542 30.5227 52.2231 30.3477 52.1302C29.8387 51.8583 29.1967 51.9518 28.7815 52.3462L27.0225 55.7269C26.9802 56.2554 27.2576 56.7781 27.7272 57.0294C28.3819 57.3795 29.1993 57.1316 29.5494 56.4771ZM33.7636 54.3171C33.7172 54.2911 32.892 53.8085 32.892 53.8085C32.8384 54.1635 32.7267 54.5116 32.553 54.8365L31.8396 56.1703L32.5482 56.5773C32.8285 56.7382 33.1605 56.7771 33.4831 56.6867C33.8183 56.5927 34.1058 56.3658 34.2717 56.0641C34.6108 55.4478 34.3828 54.6642 33.7636 54.3171ZM31.7576 48.0728C31.6497 48.0127 31.5548 47.9319 31.4782 47.835C31.4016 47.7382 31.345 47.6272 31.3114 47.5083C31.2779 47.3895 31.2681 47.2652 31.2828 47.1426C31.2974 47.02 31.3361 46.9015 31.3966 46.7939C31.4572 46.6863 31.5384 46.5917 31.6356 46.5156C31.7328 46.4395 31.8441 46.3833 31.963 46.3503C32.082 46.3173 32.2063 46.3081 32.3289 46.3233C32.4514 46.3384 32.5697 46.3777 32.6771 46.4387L39.6173 50.3438C40.2357 50.6838 41.0155 50.4573 41.3555 49.8389C41.6924 49.2265 41.4625 48.4445 40.8428 48.0956C39.2158 47.1843 37.3718 46.1516 35.5578 45.1131C35.3443 44.9883 35.1888 44.7844 35.125 44.5456C35.0612 44.3067 35.0943 44.0524 35.2171 43.8378C35.34 43.6233 35.5425 43.466 35.7808 43.4001C36.019 43.3341 36.2737 43.365 36.4893 43.4859C38.2964 44.5206 40.137 45.5513 41.7607 46.4608L41.7611 46.4611C42.0511 46.6233 42.3907 46.6611 42.7174 46.5677C43.0521 46.472 43.3275 46.2535 43.493 45.9527C43.6926 45.5899 43.701 45.1637 43.5163 44.7831C43.3987 44.5407 43.2103 44.3398 42.976 44.2069L35.3058 39.8351C34.0564 39.1231 32.456 39.7712 30.6025 40.5214C27.7778 41.6648 24.263 43.0877 21.238 39.1952C21.0226 38.9182 20.9405 38.5756 21.0065 38.2308C21.0726 37.8852 21.2766 37.5968 21.5807 37.419C23.7347 36.1618 25.5528 34.7907 26.9849 33.3433C27.2995 33.0251 27.6267 32.7195 27.9655 32.4272C26.4203 31.8193 25.0753 32.1335 23.6684 32.4633C22.1761 32.8131 20.6336 33.1748 19.0404 32.2958L17.372 31.5261L13.0898 41.2148C14.0857 41.6581 14.4543 41.8148 14.5785 41.863C15.6303 42.2713 15.9832 43.2115 16.1732 44.0579C17.1523 43.2239 18.5822 43.0237 19.7839 43.665C20.6853 44.146 21.2689 45.0034 21.4363 45.9467C22.1137 45.8493 22.8045 45.9704 23.4083 46.2924C24.1374 46.6803 24.6889 47.3344 24.9481 48.1185C25.7434 47.8996 26.5925 47.9948 27.3196 48.3844C28.0486 48.7722 28.6001 49.4261 28.8593 50.2101C29.6549 49.9912 30.5041 50.0866 31.2313 50.4764C31.5971 50.6709 31.9213 50.9351 32.1856 51.254L36.2018 53.5275C36.4949 53.6905 36.8372 53.7282 37.1655 53.6336C37.498 53.5379 37.7719 53.3202 37.9367 53.0206C38.2737 52.4081 38.0437 51.6261 37.4241 51.2775M46.9487 42.2776L43.1076 32.3694L41.7945 33.0722C40.1425 33.9313 38.5961 33.2993 37.1004 32.6879C35.1437 31.888 33.12 31.0606 30.2128 33.0549C29.5883 33.4816 28.9512 34.022 28.3179 34.6619C26.9288 36.0657 25.2167 37.3957 23.221 38.6219C25.2355 40.671 27.4105 39.7906 29.899 38.7832C32.0113 37.9279 34.1956 37.0438 36.2343 38.2058L43.9047 42.5776C44.2019 42.7467 44.4702 42.9621 44.6996 43.2158L46.9487 42.2776ZM53.3493 42.4148L47.5415 27.4336C47.4804 27.2758 47.3575 27.2021 47.2896 27.1722C47.2281 27.1451 47.1617 27.131 47.0945 27.1308C47.0372 27.1308 46.9804 27.1415 46.9269 27.1624L44.0428 28.2804C43.8027 28.3734 43.6786 28.655 43.7717 28.8952L49.5796 43.8763C49.6725 44.1163 49.9538 44.2404 50.1942 44.1474L53.0781 43.0294C53.2358 42.9682 53.3096 42.8454 53.3394 42.7775C53.3692 42.7098 53.4103 42.5724 53.3493 42.4148ZM46.2006 28.6069C45.6698 28.6069 45.2396 29.0372 45.2396 29.5679C45.2396 29.8228 45.3408 30.0672 45.521 30.2475C45.7013 30.4277 45.9457 30.529 46.2006 30.529C46.4555 30.529 46.6999 30.4277 46.8802 30.2475C47.0604 30.0672 47.1617 29.8228 47.1617 29.5679C47.1617 29.313 47.0604 29.0686 46.8802 28.8883C46.6999 28.7081 46.4555 28.6069 46.2006 28.6069ZM47.3925 22.5234C47.4065 22.6542 47.3927 22.7864 47.3522 22.9115C47.3118 23.0367 47.2454 23.1519 47.1575 23.2497C47.0696 23.3475 46.9621 23.4258 46.842 23.4794C46.7219 23.5329 46.5919 23.5607 46.4604 23.5608H37.4882C37.5051 23.6715 37.5199 23.7828 37.532 23.8952C37.546 24.026 37.5322 24.1582 37.4917 24.2833C37.4513 24.4085 37.3849 24.5237 37.297 24.6215C37.2091 24.7193 37.1016 24.7976 36.9815 24.8511C36.8614 24.9047 36.7314 24.9325 36.5999 24.9326H23.3996C23.268 24.9325 23.138 24.9049 23.0179 24.8513C22.8977 24.7977 22.7902 24.7195 22.7023 24.6217C22.6144 24.5239 22.5481 24.4086 22.5076 24.2835C22.4671 24.1584 22.4535 24.0261 22.4674 23.8953C22.4795 23.7829 22.4944 23.6715 22.5112 23.5608H13.5391C13.4075 23.5608 13.2774 23.5332 13.1573 23.4796C13.0371 23.4261 12.9296 23.3478 12.8416 23.25C12.7537 23.1521 12.6874 23.0369 12.6469 22.9117C12.6065 22.7865 12.5929 22.6542 12.6069 22.5234C12.8565 20.191 14.3063 18.2624 16.3049 17.3179C15.7032 16.6501 15.3362 15.7667 15.3362 14.7991C15.3362 12.7219 17.0262 11.032 19.1033 11.032C21.1805 11.032 22.8705 12.722 22.8705 14.7991C22.8705 15.7702 22.501 16.6567 21.8953 17.3253C22.9254 17.8153 23.8211 18.5689 24.4779 19.514C25.1825 18.7655 26.0323 18.1684 26.9753 17.7592C26.1919 16.9809 25.7059 15.9035 25.7059 14.7146C25.7059 12.347 27.6321 10.4206 29.9998 10.4206C32.3674 10.4206 34.2938 12.347 34.2938 14.7146C34.2938 15.9036 33.8078 16.9809 33.0243 17.7593C33.9673 18.1685 34.8171 18.7656 35.5217 19.5142C36.1784 18.569 37.074 17.8154 38.1042 17.3254C37.4986 16.6568 37.1291 15.7704 37.1291 14.7992C37.1291 12.722 38.8191 11.0321 40.8962 11.0321C42.9734 11.0321 44.6633 12.7221 44.6633 14.7992C44.6633 15.7669 44.2964 16.6501 43.6947 17.3181C45.6931 18.2622 47.143 20.1909 47.3925 22.5234ZM40.8961 16.6913C41.9394 16.6913 42.7882 15.8426 42.7882 14.7992C42.7882 13.7559 41.9394 12.9071 40.8961 12.9071C39.8528 12.9071 39.004 13.7559 39.004 14.7992C39.004 15.8426 39.8528 16.6913 40.8961 16.6913ZM29.9997 17.1334C31.3335 17.1334 32.4187 16.0483 32.4187 14.7145C32.4187 13.3807 31.3335 12.2955 29.9997 12.2955C28.666 12.2955 27.5808 13.3807 27.5808 14.7145C27.5809 16.0483 28.6661 17.1334 29.9997 17.1334ZM19.1033 16.6913C20.1467 16.6913 20.9955 15.8426 20.9955 14.7992C20.9955 13.7559 20.1467 12.9071 19.1033 12.9071C18.06 12.9071 17.2112 13.7559 17.2112 14.7992C17.2112 15.8426 18.06 16.6913 19.1033 16.6913ZM23.05 21.6856C23.1237 21.5144 23.2037 21.346 23.2899 21.1807C22.5155 19.6012 20.8839 18.5662 19.1033 18.5662C17.0795 18.5662 15.3402 19.8507 14.703 21.6856H23.05ZM35.459 23.0574C34.749 20.6891 32.5605 19.0084 29.9997 19.0084C27.4388 19.0084 25.2502 20.6891 24.5404 23.0574H35.459ZM45.2965 21.6856C44.6592 19.8507 42.9199 18.5662 40.8961 18.5662C39.1156 18.5662 37.4841 19.6012 36.7096 21.1808C36.7958 21.3461 36.8758 21.5145 36.9495 21.6856H45.2965ZM52.8338 25.646C52.8338 25.8946 52.9325 26.1331 53.1084 26.3089C53.2842 26.4847 53.5226 26.5835 53.7713 26.5835C54.0199 26.5835 54.2584 26.4847 54.4342 26.3089C54.61 26.1331 54.7088 25.8946 54.7088 25.646C54.7088 21.2765 53.552 16.9818 51.3637 13.2261C51.2375 13.0132 51.0323 12.8589 50.7928 12.7967C50.5533 12.7345 50.299 12.7695 50.0852 12.894C49.8714 13.0186 49.7155 13.2227 49.6515 13.4617C49.5876 13.7007 49.6207 13.9553 49.7437 14.1701C51.7653 17.6395 52.8338 21.6078 52.8338 25.646ZM6.22819 26.5835C6.47683 26.5835 6.71529 26.4847 6.8911 26.3089C7.06692 26.1331 7.16569 25.8946 7.16569 25.646C7.16569 20.6353 8.78932 15.9974 11.5363 12.2278L11.6036 14.1015C11.608 14.2245 11.6366 14.3455 11.6878 14.4575C11.7389 14.5695 11.8117 14.6703 11.9018 14.7541C11.9919 14.838 12.0977 14.9033 12.213 14.9463C12.3284 14.9893 12.4511 15.0092 12.5741 15.0048C12.6972 15.0004 12.8181 14.9718 12.9301 14.9206C13.0421 14.8694 13.1429 14.7967 13.2268 14.7066C13.3107 14.6165 13.376 14.5107 13.419 14.3953C13.462 14.28 13.4818 14.1573 13.4774 14.0342L13.3344 10.054C17.504 5.60025 23.4319 2.81189 29.9997 2.81189C34.8332 2.81189 39.5465 4.35443 43.4326 7.18205L41.544 7.2499C41.2956 7.25882 41.0608 7.36608 40.8914 7.5481C40.722 7.73011 40.6318 7.97196 40.6408 8.22044C40.6497 8.46893 40.757 8.70369 40.939 8.87309C41.121 9.04249 41.3628 9.13265 41.6113 9.12373L45.9939 8.96634C46.1361 8.96126 46.2752 8.92389 46.4008 8.85707C46.5263 8.79025 46.6351 8.69573 46.7187 8.58066C46.8023 8.4656 46.8587 8.33301 46.8835 8.19294C46.9083 8.05287 46.9009 7.90899 46.8619 7.7722L45.6586 3.55498C45.5904 3.31586 45.43 3.11364 45.2127 2.9928C44.9953 2.87196 44.7389 2.8424 44.4998 2.91062C44.2607 2.97884 44.0585 3.13926 43.9376 3.35657C43.8168 3.57389 43.7872 3.83031 43.8555 4.06943L44.2537 5.46501C40.1032 2.53345 35.1137 0.93689 29.9997 0.93689C22.8555 0.93689 16.4108 3.98576 11.8955 8.84939L7.90854 9.98693C7.66944 10.0552 7.46724 10.2156 7.34643 10.4329C7.22561 10.6502 7.19607 10.9066 7.2643 11.1457C7.33254 11.3848 7.49296 11.587 7.71028 11.7079C7.9276 11.8287 8.18401 11.8582 8.42311 11.79L9.82995 11.3886C6.97221 15.4194 5.29069 20.3399 5.29069 25.646C5.29069 25.8946 5.38946 26.1331 5.56528 26.3089C5.74109 26.4847 5.97955 26.5835 6.22819 26.5835Z" fill="white"/>
</svg>
