<svg width="60" height="60" viewBox="0 0 60 60" fill="none" xmlns="http://www.w3.org/2000/svg">
<g clip-path="url(#clip0_111_2205)">
<path fill-rule="evenodd" clip-rule="evenodd" d="M39.375 45.8789H20.625V44.1211H39.375V45.8789ZM38.4375 49.3945H21.5625V47.6367H38.4375V49.3945ZM38.2031 52.9102H21.7969V51.1523H38.2031V52.9102ZM25.6055 55.5469V56.7188C25.6055 57.5278 26.2613 58.1836 27.0703 58.1836H32.9297C33.7387 58.1836 34.3945 57.5278 34.3945 56.7188V55.5469H36.1523V56.7188C36.1523 58.4986 34.7095 59.9414 32.9297 59.9414H27.0703C25.2905 59.9414 23.8477 58.4986 23.8477 56.7188V55.5469H25.6055Z" fill="white"/>
<path fill-rule="evenodd" clip-rule="evenodd" d="M14.2269 6.26549C18.3596 2.41532 23.9056 0.0585938 30 0.0585938C36.0944 0.0585938 41.6404 2.41532 45.7731 6.26549L44.5748 7.55163C40.7546 3.99258 35.6324 1.81641 30 1.81641C24.3676 1.81641 19.2454 3.99257 15.4252 7.55163L14.2269 6.26549ZM6.85547 23.2031C6.85547 17.1087 9.21219 11.5627 13.0624 7.43006L14.3485 8.62828C10.7895 12.4485 8.61328 17.5707 8.61328 23.2031C8.61328 26.6843 9.4444 29.9688 10.9183 32.8715L9.35091 33.6673C7.75473 30.5238 6.85547 26.9672 6.85547 23.2031ZM46.9376 7.43006C50.7878 11.5627 53.1445 17.1087 53.1445 23.2031C53.1445 26.9672 52.2453 30.5237 50.6491 33.6673L49.0817 32.8715C50.5556 29.9688 51.3867 26.6843 51.3867 23.2031C51.3867 17.5707 49.2105 12.4485 45.6515 8.62829L46.9376 7.43006ZM17.1565 42.4594C14.1426 40.4454 11.6282 37.7428 9.83805 34.5758L11.3683 33.7108C13.0226 36.6375 15.3471 39.1361 18.1331 40.9978L17.6448 41.7286L18.1331 40.9978C19.4899 41.9045 20.5864 43.1071 21.3618 44.4876L19.8292 45.3484C19.1868 44.2048 18.2792 43.2096 17.1565 42.4594ZM50.162 34.5758C48.3718 37.7428 45.8574 40.4454 42.8435 42.4594C41.7208 43.2096 40.8132 44.2048 40.1708 45.3484L38.6382 44.4876C39.4136 43.107 40.5101 41.9045 41.8669 40.9978C44.6529 39.1361 46.9774 36.6375 48.6317 33.7108L50.162 34.5758ZM39.9934 45.6813C39.4026 46.8522 39.082 48.1616 39.082 49.5129V51.2744H37.3242V49.5129C37.3242 47.8828 37.711 46.3026 38.4241 44.8894L39.9934 45.6813ZM20.918 49.5129C20.918 48.1616 20.5974 46.8522 20.0066 45.6814L21.5759 44.8895C22.289 46.3026 22.6758 47.8829 22.6758 49.5129V51.2744H20.918V49.5129ZM20.918 53.2031V51.4416H22.6758V53.2031C22.6758 53.5894 22.8241 53.939 23.0685 54.2013L21.7823 55.3995C21.2468 54.8247 20.918 54.0513 20.918 53.2031ZM39.082 51.4416V53.2031C39.082 54.0513 38.7532 54.8247 38.2177 55.3995L36.9315 54.2013C37.1759 53.939 37.3242 53.5894 37.3242 53.2031V51.4416H39.082ZM24.1406 56.4258C23.2924 56.4258 22.5191 56.097 21.9442 55.5614L23.1425 54.2753C23.4048 54.5197 23.7544 54.668 24.1406 54.668H29.7345V56.4258H24.1406ZM38.0558 55.5614C37.4809 56.097 36.7076 56.4258 35.8594 56.4258H30.2655V54.668H35.8594C36.2456 54.668 36.5952 54.5197 36.8575 54.2753L38.0558 55.5614Z" fill="white"/>
<path fill-rule="evenodd" clip-rule="evenodd" d="M53.5462 4.94427L50.135 7.80669L49.0051 6.46014L52.4163 3.59772L53.5462 4.94427ZM7.58367 3.59772L10.9949 6.46014L9.86496 7.80669L6.45375 4.94427L7.58367 3.59772ZM22.2693 10.8772C23.1356 9.12153 24.943 7.91013 27.0395 7.91013C28.1375 7.91013 29.1552 8.24521 30 8.813C30.8448 8.24512 31.8625 7.91013 32.9605 7.91013C35.057 7.91013 36.8645 9.1215 37.7307 10.8772C39.6952 11.0439 41.2407 12.6877 41.2407 14.6953C41.2407 14.7339 41.24 14.7721 41.2387 14.81C43.3835 15.4922 44.9414 17.4916 44.9414 19.8633C44.9414 21.3973 44.2876 22.7738 43.2492 23.7399C43.8407 24.5023 44.2012 25.4577 44.2012 26.5078C44.2012 27.9783 43.5006 29.2689 42.4307 30.0984C42.6151 30.5856 42.7211 31.1156 42.7211 31.6758C42.7211 33.9289 41.0876 35.7754 38.9536 36.1572C37.9099 37.9716 35.9522 39.1992 33.7007 39.1992C32.3064 39.1992 31.0228 38.7275 30 37.9383C28.9772 38.7275 27.6936 39.1992 26.2993 39.1992C24.0478 39.1992 22.0901 37.9716 21.0464 36.1572C18.9124 35.7754 17.2789 33.9289 17.2789 31.6758C17.2789 31.1156 17.385 30.5856 17.5694 30.0984C16.4995 29.269 15.7987 27.9783 15.7987 26.5078C15.7987 25.4577 16.1593 24.5023 16.7508 23.7399C15.7125 22.7738 15.0586 21.3973 15.0586 19.8633C15.0586 17.4915 16.6165 15.4921 18.7613 14.81C18.76 14.7721 18.7593 14.7339 18.7593 14.6953C18.7593 12.6877 20.3047 11.0438 22.2693 10.8772ZM30.8789 36.387C31.6351 37.0441 32.6205 37.4414 33.7007 37.4414C35.422 37.4414 36.9051 36.4303 37.593 34.9682L37.8133 34.4999L38.3296 34.4654C39.806 34.3666 40.9632 33.156 40.9632 31.6758C40.9632 31.1558 40.8111 30.6674 40.5492 30.2343L40.0612 29.4273L40.9006 28.9973C41.8211 28.5258 42.4434 27.589 42.4434 26.5078C42.4434 25.6316 42.0307 24.8514 41.3789 24.3284L40.4014 23.544L41.4719 22.8922C42.501 22.2656 43.1836 21.1436 43.1836 19.8633C43.1836 18.0753 41.8538 16.5946 40.1204 16.3522L39.1265 16.2131L39.3954 15.2462C39.4527 15.0403 39.4829 14.8634 39.4829 14.6953C39.4829 13.5547 38.5578 12.6258 37.4102 12.6211C37.4066 12.6215 37.4001 12.6222 37.3898 12.6235C37.3822 12.6245 37.3743 12.6256 37.3636 12.6271C37.3536 12.6284 37.3408 12.6301 37.3276 12.6319C37.301 12.6353 37.2658 12.6396 37.2262 12.6429L36.5466 12.7002L36.3224 12.0561C35.8383 10.6655 34.5167 9.66794 32.9605 9.66794C32.1831 9.66794 31.4658 9.91815 30.8789 10.3427V36.387ZM29.1211 10.3428C28.5342 9.9182 27.8168 9.66794 27.0395 9.66794C25.4834 9.66794 24.1618 10.6655 23.6776 12.0561L23.4534 12.7002L22.7738 12.6429C22.7342 12.6396 22.699 12.6353 22.6724 12.6319C22.6592 12.6301 22.6464 12.6284 22.6364 12.6271C22.6257 12.6256 22.6178 12.6245 22.6102 12.6235C22.5999 12.6222 22.5934 12.6215 22.5898 12.6211C21.4421 12.6258 20.5171 13.5547 20.5171 14.6953C20.5171 14.8634 20.5473 15.0403 20.6046 15.2462L20.8735 16.2132L19.8795 16.3522C18.1462 16.5945 16.8164 18.0752 16.8164 19.8633C16.8164 21.1436 17.499 22.2656 18.5281 22.8922L19.5985 23.5439L18.6212 24.3283C17.9693 24.8515 17.5566 25.6316 17.5566 26.5078C17.5566 27.589 18.1789 28.5258 19.0994 28.9973L19.9386 29.4272L19.4508 30.2342C19.189 30.6674 19.0368 31.1559 19.0368 31.6758C19.0368 33.156 20.194 34.3666 21.6704 34.4654L22.1867 34.4999L22.407 34.9682C23.0949 36.4303 24.578 37.4414 26.2993 37.4414C27.3795 37.4414 28.3649 37.0441 29.1211 36.387V10.3428ZM2.10987 12.4682L6.2944 13.9913L5.69318 15.6431L1.50865 14.12L2.10987 12.4682ZM58.4914 14.12L54.3068 15.6431L53.7056 13.9913L57.8901 12.4682L58.4914 14.12ZM4.45312 24.4336H0V22.6758H4.45312V24.4336ZM60 24.4336H55.5469V22.6758H60V24.4336ZM6.2944 33.1181L2.10987 34.6411L1.50865 32.9894L5.69318 31.4663L6.2944 33.1181ZM54.3068 31.4663L58.4914 32.9894L57.8901 34.6411L53.7056 33.1181L54.3068 31.4663ZM10.9949 40.6492L7.58367 43.5116L6.45375 42.1651L9.86496 39.3026L10.9949 40.6492ZM50.135 39.3026L53.5462 42.1651L52.4163 43.5116L49.0051 40.6492L50.135 39.3026Z" fill="white"/>
<path fill-rule="evenodd" clip-rule="evenodd" d="M19.8922 16.3502C19.8926 16.3501 19.8931 16.3501 19.7573 15.4817C19.6216 14.6133 19.6221 14.6133 19.6226 14.6132L19.6236 14.613L19.6258 14.6127L19.631 14.6119C19.6347 14.6114 19.639 14.6107 19.6439 14.6101C19.6537 14.6087 19.6659 14.6071 19.6802 14.6054C19.7089 14.602 19.7465 14.5981 19.7923 14.5946C19.8836 14.5875 20.0083 14.5817 20.1593 14.5844C20.4601 14.5898 20.8735 14.6287 21.3402 14.7618C22.2924 15.0335 23.4283 15.6888 24.2587 17.142L22.7325 18.0141C22.1566 17.0064 21.4234 16.6135 20.858 16.4522C20.566 16.3689 20.3084 16.3452 20.1281 16.3419C20.0385 16.3404 19.9699 16.3439 19.9283 16.3471C19.9075 16.3487 19.8937 16.3502 19.8875 16.351C19.8844 16.3513 19.8833 16.3515 19.8842 16.3514L19.8871 16.351L19.8897 16.3506L19.8913 16.3503L19.8922 16.3502ZM40.3765 14.6132C40.377 14.6133 40.3775 14.6133 40.2417 15.4817C40.1059 16.3501 40.1064 16.3501 40.1069 16.3502L40.1077 16.3503L40.1094 16.3506L40.112 16.351L40.1148 16.3514C40.1157 16.3515 40.1146 16.3513 40.1115 16.351C40.1053 16.3502 40.0915 16.3487 40.0707 16.3471C40.0291 16.3439 39.9606 16.3404 39.871 16.3419C39.6906 16.3452 39.433 16.3689 39.141 16.4522C38.5756 16.6135 37.8424 17.0064 37.2665 18.0141L35.7403 17.142C36.5707 15.6888 37.7066 15.0335 38.6588 14.7618C39.1256 14.6287 39.5389 14.5898 39.8397 14.5844C39.9907 14.5817 40.1154 14.5875 40.2068 14.5946C40.2525 14.5981 40.2902 14.602 40.3188 14.6054C40.3332 14.6071 40.3453 14.6087 40.3551 14.6101C40.36 14.6107 40.3643 14.6114 40.368 14.6119L40.3732 14.6127L40.3754 14.613L40.3765 14.6132ZM49.6284 20.8593V22.6171H47.8706V20.8593H49.6284ZM18.5649 24.3695C18.5654 24.3692 18.5658 24.3689 18.0705 23.6429C17.5753 22.9168 17.5757 22.9165 17.5762 22.9161L17.5772 22.9155L17.5794 22.914L17.5847 22.9104C17.5887 22.9078 17.5933 22.9047 17.5988 22.9012C17.6096 22.8941 17.6235 22.8852 17.6402 22.8748C17.6736 22.854 17.7188 22.827 17.7747 22.7959C17.8861 22.7338 18.0424 22.6545 18.2356 22.5759C18.6183 22.4204 19.1692 22.2585 19.8162 22.2584C20.4736 22.2584 21.2137 22.4262 21.9454 22.9089C22.6712 23.3877 23.3434 24.146 23.9233 25.2574L22.3648 26.0705C21.89 25.1605 21.4006 24.6554 20.9774 24.3762C20.5601 24.1009 20.1636 24.0162 19.8163 24.0162C19.4586 24.0163 19.1367 24.1071 18.8976 24.2043C18.78 24.2521 18.6882 24.2992 18.6293 24.3319C18.6001 24.3482 18.5795 24.3607 18.5685 24.3675C18.563 24.3709 18.5599 24.3729 18.5594 24.3732L18.5595 24.3732C18.5597 24.373 18.5601 24.3728 18.5606 24.3724L18.5627 24.371L18.5641 24.3701L18.5649 24.3695ZM42.4228 22.9161C42.4233 22.9165 42.4238 22.9168 41.9285 23.6429C41.4332 24.3689 41.4337 24.3692 41.4341 24.3695L41.4349 24.3701L41.4363 24.371L41.4384 24.3724C41.4394 24.3731 41.4398 24.3734 41.4396 24.3732C41.4391 24.3729 41.436 24.3709 41.4305 24.3675C41.4195 24.3607 41.399 24.3482 41.3697 24.3319C41.3108 24.2992 41.219 24.2521 41.1014 24.2043C40.8623 24.1071 40.5404 24.0163 40.1827 24.0162C39.8354 24.0162 39.4389 24.1009 39.0216 24.3762C38.5984 24.6554 38.109 25.1605 37.6342 26.0705L36.0758 25.2574C36.6556 24.146 37.3278 23.3877 38.0536 22.9089C38.7854 22.4262 39.5254 22.2584 40.1828 22.2584C40.8298 22.2585 41.3808 22.4204 41.7634 22.5759C41.9566 22.6545 42.1129 22.7338 42.2243 22.7959C42.2802 22.827 42.3254 22.854 42.3588 22.8748C42.3756 22.8852 42.3894 22.8941 42.4003 22.9012C42.4036 22.9033 42.4067 22.9054 42.4095 22.9072C42.4112 22.9083 42.4128 22.9094 42.4143 22.9104L42.4196 22.914L42.4218 22.9155L42.4228 22.9161ZM49.6284 24.4921V26.2499H47.8706V24.4921H49.6284ZM21.5681 36.2201C21.5676 36.2201 21.5671 36.2201 21.6112 35.3423C21.6554 34.4645 21.6549 34.4645 21.6545 34.4644L21.6536 34.4644L21.6521 34.4643L21.65 34.4642C21.6489 34.4642 21.6486 34.4642 21.649 34.4642C21.6498 34.4642 21.6533 34.4643 21.6595 34.4644C21.6718 34.4646 21.6944 34.4646 21.7255 34.4637C21.7882 34.4618 21.8834 34.456 21.9988 34.4399C22.2349 34.4071 22.526 34.3353 22.7953 34.1901C23.056 34.0494 23.2931 33.8427 23.4578 33.5225C23.6241 33.1993 23.7509 32.6934 23.6753 31.8997L25.4252 31.733C25.5254 32.785 25.3728 33.6427 25.0209 34.3266C24.6675 35.0137 24.1479 35.4577 23.6299 35.7371C23.1205 36.0119 22.6109 36.1295 22.241 36.181C22.0534 36.2071 21.8942 36.2172 21.7784 36.2207C21.7202 36.2224 21.6724 36.2225 21.6367 36.2221C21.6189 36.2218 21.604 36.2215 21.5923 36.2211C21.5865 36.2209 21.5815 36.2207 21.5772 36.2205L21.5715 36.2203L21.5692 36.2202L21.5681 36.2201ZM38.3446 34.4644C38.3441 34.4645 38.3437 34.4645 38.3878 35.3423C38.4319 36.2201 38.4314 36.2201 38.4309 36.2201L38.4299 36.2202L38.4275 36.2203L38.4218 36.2205C38.4176 36.2207 38.4125 36.2209 38.4067 36.2211C38.395 36.2215 38.3801 36.2218 38.3623 36.2221C38.3266 36.2225 38.2788 36.2224 38.2207 36.2207C38.1048 36.2172 37.9456 36.2071 37.758 36.181C37.3882 36.1295 36.8785 36.0119 36.3692 35.7371C35.8512 35.4577 35.3315 35.0137 34.9781 34.3266C34.6262 33.6427 34.4736 32.785 34.5738 31.733L36.3237 31.8997C36.2481 32.6934 36.3749 33.1993 36.5412 33.5225C36.7059 33.8427 36.943 34.0494 37.2037 34.1901C37.473 34.3353 37.7641 34.4071 38.0003 34.4399C38.1157 34.456 38.2108 34.4618 38.2735 34.4637C38.3047 34.4646 38.3272 34.4646 38.3396 34.4644C38.3457 34.4643 38.3493 34.4642 38.35 34.4642C38.3504 34.4642 38.3501 34.4642 38.349 34.4642L38.3469 34.4643L38.3454 34.4644L38.3446 34.4644Z" fill="white"/>
</g>
<defs>
<clipPath id="clip0_111_2205">
<rect width="60" height="60" fill="white"/>
</clipPath>
</defs>
</svg>
