<svg width="80" height="81" viewBox="0 0 80 81" fill="none" xmlns="http://www.w3.org/2000/svg">
<path fill-rule="evenodd" clip-rule="evenodd" d="M41.6423 0.133352C52.9119 -1.19922 62.7327 7.69021 70.1267 16.3071C76.9324 24.2384 80.2366 34.3672 79.9868 44.8196C79.7434 55.0038 76.2014 65.0124 68.7956 71.9997C61.5831 78.8046 51.5532 80.9054 41.6423 80.997C31.6177 81.0895 21.5454 79.094 13.9834 72.5059C5.89611 65.4601 -0.987939 55.4945 0.116957 44.8196C1.16905 34.6549 12.2234 29.8142 19.1767 22.3317C26.6269 14.3143 30.7791 1.41788 41.6423 0.133352Z" fill="white"/>
<path d="M44.5508 52.9617C44.3798 52.9617 44.2159 53.0296 44.095 53.1505C43.9742 53.2714 43.9062 53.4353 43.9062 53.6062V56.443C43.9058 56.4997 43.883 56.5539 43.8428 56.5939C43.8025 56.6338 43.7481 56.6562 43.6914 56.6562H40.2539C40.1969 56.6562 40.1423 56.6336 40.102 56.5933C40.0617 56.553 40.0391 56.4984 40.0391 56.4414V53.6094C40.0391 53.4606 39.9878 53.3164 39.8936 53.2012C39.7995 53.086 39.6684 53.0069 39.5227 52.9773C37.9883 52.6654 36.529 52.0586 35.2258 51.1906C35.1017 51.1089 34.9532 51.0724 34.8053 51.0873C34.6575 51.1023 34.5193 51.1677 34.4141 51.2727L32.4023 53.2797C32.3619 53.32 32.3071 53.3427 32.25 53.3427C32.1929 53.3427 32.1381 53.32 32.0977 53.2797L29.6672 50.8492C29.627 50.8087 29.6045 50.7539 29.6045 50.6969C29.6045 50.6398 29.627 50.5851 29.6672 50.5445L31.6773 48.5352C31.7819 48.4296 31.8469 48.2911 31.8611 48.1432C31.8753 47.9953 31.838 47.847 31.7555 47.7234C30.8875 46.4202 30.2807 44.961 29.9688 43.4266C29.9401 43.2807 29.8619 43.1492 29.7475 43.0544C29.633 42.9596 29.4893 42.9072 29.3406 42.9062H26.5039C26.4469 42.9062 26.3923 42.8836 26.352 42.8433C26.3117 42.803 26.2891 42.7484 26.2891 42.6914V39.2539C26.2897 39.1973 26.3126 39.1431 26.3528 39.1032C26.393 39.0633 26.4473 39.0408 26.5039 39.0406H29.3492C29.4978 39.0407 29.6418 38.9894 29.7568 38.8954C29.8719 38.8015 29.9509 38.6706 29.9805 38.525C30.2908 36.9915 30.8946 35.5325 31.7586 34.2281C31.8413 34.1046 31.8787 33.9563 31.8644 33.8083C31.8502 33.6604 31.7852 33.5219 31.6805 33.4164L29.6672 31.4039C29.627 31.3634 29.6045 31.3086 29.6045 31.2516C29.6045 31.1945 29.627 31.1397 29.6672 31.0992L32.0977 28.6688C32.1381 28.6284 32.1929 28.6057 32.25 28.6057C32.3071 28.6057 32.3619 28.6284 32.4023 28.6688L34.4117 30.6789C34.5169 30.7838 34.6551 30.8493 34.803 30.8642C34.9509 30.8792 35.0993 30.8427 35.2234 30.7609C36.5268 29.8933 37.986 29.2865 39.5203 28.9742C39.6661 28.9446 39.7972 28.8656 39.8913 28.7504C39.9854 28.6352 40.0368 28.4909 40.0367 28.3422V25.5055C40.0368 25.4771 40.0425 25.449 40.0535 25.4228C40.0645 25.3967 40.0805 25.3729 40.1007 25.3529C40.1209 25.333 40.1448 25.3172 40.1711 25.3065C40.1974 25.2958 40.2255 25.2904 40.2539 25.2906H43.6914C43.7483 25.2908 43.8028 25.3135 43.8431 25.3538C43.8833 25.394 43.906 25.4486 43.9062 25.5055V28.3422C43.9062 28.5131 43.9742 28.6771 44.095 28.7979C44.2159 28.9188 44.3798 28.9867 44.5508 28.9867C44.7217 28.9867 44.8857 28.9188 45.0065 28.7979C45.1274 28.6771 45.1953 28.5131 45.1953 28.3422V25.5055C45.1951 25.1065 45.0366 24.724 44.7547 24.4417C44.4727 24.1595 44.0903 24.0006 43.6914 24H40.2539C39.8552 24.0006 39.4731 24.1593 39.1912 24.4412C38.9093 24.7231 38.7506 25.1052 38.75 25.5039V27.8281C37.4125 28.1549 36.1336 28.6864 34.9586 29.4039L33.3133 27.7578C33.0268 27.4844 32.646 27.3318 32.25 27.3318C31.854 27.3318 31.4732 27.4844 31.1867 27.7578L28.7563 30.1883C28.4745 30.4704 28.3162 30.8528 28.3162 31.2516C28.3162 31.6503 28.4745 32.0327 28.7563 32.3148L30.3969 33.9602C29.6846 35.1359 29.1571 36.4141 28.8328 37.75H26.5039C26.1052 37.7506 25.7231 37.9093 25.4412 38.1912C25.1593 38.4731 25.0006 38.8552 25 39.2539V42.6914C25.0002 43.0903 25.1587 43.4729 25.4406 43.7552C25.7226 44.0374 26.105 44.1963 26.5039 44.1969H28.825C29.1518 45.5343 29.6833 46.8132 30.4008 47.9883L28.7602 49.6336C28.4784 49.9157 28.3201 50.2981 28.3201 50.6969C28.3201 51.0956 28.4784 51.478 28.7602 51.7602L31.1906 54.1906C31.4768 54.4646 31.8577 54.6176 32.2539 54.6176C32.6501 54.6176 33.031 54.4646 33.3172 54.1906L34.9625 52.55C36.1377 53.267 37.4166 53.7982 38.7539 54.125V56.4461C38.7553 56.8435 38.9138 57.2243 39.1948 57.5054C39.4758 57.7866 39.8565 57.9452 40.2539 57.9469H43.6914C44.0901 57.9463 44.4722 57.7876 44.7541 57.5057C45.036 57.2238 45.1947 56.8416 45.1953 56.443V53.6094C45.1957 53.5245 45.1794 53.4403 45.1472 53.3618C45.1149 53.2832 45.0675 53.2118 45.0076 53.1516C44.9478 53.0914 44.8766 53.0437 44.7982 53.0111C44.7198 52.9785 44.6357 52.9617 44.5508 52.9617Z" fill="#635AD9"/>
<path d="M47.7731 35.818C47.7726 34.9633 47.433 34.1436 46.8288 33.5391C46.2246 32.9346 45.4051 32.5946 44.5504 32.5938H36.816C36.1384 32.5919 35.4776 32.8043 34.928 33.2006C34.3784 33.5968 33.9681 34.1567 33.7558 34.8002C33.5434 35.4436 33.54 36.1377 33.7458 36.7833C33.9517 37.4288 34.3563 37.9928 34.902 38.3945C34.4964 38.6911 34.1666 39.0791 33.9392 39.527C33.7118 39.975 33.5932 40.4703 33.5932 40.9727C33.5932 41.475 33.7118 41.9703 33.9392 42.4183C34.1666 42.8663 34.4964 43.2543 34.902 43.5508C34.3557 43.9523 33.9504 44.5164 33.7441 45.1622C33.5379 45.8081 33.5411 46.5026 33.7535 47.1465C33.9659 47.7904 34.3766 48.3506 34.9266 48.7469C35.4767 49.1432 36.138 49.3554 36.816 49.3531H44.5504C45.228 49.355 45.8888 49.1426 46.4384 48.7463C46.9881 48.3501 47.3984 47.7902 47.6107 47.1467C47.823 46.5033 47.8265 45.8092 47.6206 45.1636C47.4148 44.5181 47.0101 43.9541 46.4645 43.5524C46.87 43.2558 47.1999 42.8678 47.4273 42.4199C47.6547 41.9719 47.7732 41.4766 47.7732 40.9742C47.7732 40.4719 47.6547 39.9766 47.4273 39.5286C47.1999 39.0806 46.87 38.6926 46.4645 38.3961C46.8689 38.0986 47.198 37.7104 47.4253 37.2626C47.6525 36.8149 47.7717 36.3201 47.7731 35.818ZM46.484 46.1305C46.4832 46.6429 46.2791 47.1341 45.9167 47.4963C45.5542 47.8585 45.0628 48.0621 44.5504 48.0625H36.816C36.3032 48.0625 35.8114 47.8588 35.4488 47.4962C35.0862 47.1336 34.8824 46.6417 34.8824 46.1289C34.8824 45.6161 35.0862 45.1243 35.4488 44.7617C35.8114 44.399 36.3032 44.1953 36.816 44.1953H44.5504C45.0634 44.1957 45.5552 44.3998 45.9178 44.7627C46.2803 45.1255 46.484 45.6175 46.484 46.1305ZM46.484 40.9742C46.4832 41.4867 46.2791 41.9778 45.9167 42.34C45.5542 42.7022 45.0628 42.9058 44.5504 42.9063H36.816C36.3032 42.9063 35.8114 42.7025 35.4488 42.3399C35.0862 41.9773 34.8824 41.4855 34.8824 40.9727C34.8824 40.4598 35.0862 39.968 35.4488 39.6054C35.8114 39.2428 36.3032 39.0391 36.816 39.0391H44.5504C45.0634 39.0395 45.5552 39.2436 45.9178 39.6064C46.2803 39.9693 46.484 40.4613 46.484 40.9742ZM44.5504 37.75H36.816C36.3032 37.75 35.8114 37.5463 35.4488 37.1837C35.0862 36.8211 34.8824 36.3292 34.8824 35.8164C34.8824 35.3036 35.0862 34.8118 35.4488 34.4492C35.8114 34.0865 36.3032 33.8828 36.816 33.8828H44.5504C45.0632 33.8828 45.555 34.0865 45.9177 34.4492C46.2803 34.8118 46.484 35.3036 46.484 35.8164C46.484 36.3292 46.2803 36.8211 45.9177 37.1837C45.555 37.5463 45.0632 37.75 44.5504 37.75Z" fill="#635AD9"/>
<path d="M43.6914 35.1719H40.2539C40.083 35.1719 39.919 35.2398 39.7982 35.3607C39.6773 35.4815 39.6094 35.6455 39.6094 35.8164C39.6094 35.9873 39.6773 36.1513 39.7982 36.2722C39.919 36.393 40.083 36.4609 40.2539 36.4609H43.6914C43.8623 36.4609 44.0263 36.393 44.1472 36.2722C44.268 36.1513 44.3359 35.9873 44.3359 35.8164C44.3359 35.6455 44.268 35.4815 44.1472 35.3607C44.0263 35.2398 43.8623 35.1719 43.6914 35.1719Z" fill="#635AD9"/>
<path d="M37.6758 36.6773C38.1504 36.6773 38.5352 36.2926 38.5352 35.818C38.5352 35.3433 38.1504 34.9586 37.6758 34.9586C37.2012 34.9586 36.8164 35.3433 36.8164 35.818C36.8164 36.2926 37.2012 36.6773 37.6758 36.6773Z" fill="#635AD9"/>
<path d="M40.2539 41.6187H43.6914C43.8623 41.6187 44.0263 41.5508 44.1472 41.43C44.268 41.3091 44.3359 41.1452 44.3359 40.9742C44.3359 40.8033 44.268 40.6393 44.1472 40.5185C44.0263 40.3976 43.8623 40.3297 43.6914 40.3297H40.2539C40.083 40.3297 39.919 40.3976 39.7982 40.5185C39.6773 40.6393 39.6094 40.8033 39.6094 40.9742C39.6094 41.1452 39.6773 41.3091 39.7982 41.43C39.919 41.5508 40.083 41.6187 40.2539 41.6187Z" fill="#635AD9"/>
<path d="M37.6758 41.8336C38.1504 41.8336 38.5352 41.4488 38.5352 40.9742C38.5352 40.4996 38.1504 40.1148 37.6758 40.1148C37.2012 40.1148 36.8164 40.4996 36.8164 40.9742C36.8164 41.4488 37.2012 41.8336 37.6758 41.8336Z" fill="#635AD9"/>
<path d="M40.2539 46.775H43.6914C43.8623 46.775 44.0263 46.7071 44.1472 46.5862C44.268 46.4653 44.3359 46.3014 44.3359 46.1305C44.3359 45.9595 44.268 45.7956 44.1472 45.6747C44.0263 45.5538 43.8623 45.4859 43.6914 45.4859H40.2539C40.083 45.4859 39.919 45.5538 39.7982 45.6747C39.6773 45.7956 39.6094 45.9595 39.6094 46.1305C39.6094 46.3014 39.6773 46.4653 39.7982 46.5862C39.919 46.7071 40.083 46.775 40.2539 46.775Z" fill="#635AD9"/>
<path d="M37.6758 46.9898C38.1504 46.9898 38.5352 46.6051 38.5352 46.1305C38.5352 45.6558 38.1504 45.2711 37.6758 45.2711C37.2012 45.2711 36.8164 45.6558 36.8164 46.1305C36.8164 46.6051 37.2012 46.9898 37.6758 46.9898Z" fill="#635AD9"/>
<path d="M47.1289 31.3062C47.2291 31.3064 47.328 31.2832 47.4176 31.2385C47.5073 31.1937 47.5852 31.1286 47.6453 31.0484L50.0297 27.8687H54.3164C54.4721 28.4174 54.8211 28.8913 55.2988 29.2028C55.7765 29.5144 56.3507 29.6428 56.9156 29.5641C57.4805 29.4855 57.998 29.2053 58.3724 28.7751C58.7469 28.3449 58.9532 27.7938 58.9532 27.2234C58.9532 26.6531 58.7469 26.102 58.3724 25.6718C57.998 25.2416 57.4805 24.9613 56.9156 24.8827C56.3507 24.8041 55.7765 24.9324 55.2988 25.244C54.8211 25.5556 54.4721 26.0294 54.3164 26.5781H49.707C49.607 26.5783 49.5084 26.6017 49.4189 26.6464C49.3294 26.6911 49.2516 26.756 49.1914 26.8359L46.6133 30.2734C46.5415 30.3691 46.4978 30.4829 46.487 30.6021C46.4762 30.7212 46.4988 30.841 46.5522 30.948C46.6057 31.0551 46.6879 31.1451 46.7896 31.2081C46.8913 31.2711 47.0085 31.3045 47.1281 31.3047L47.1289 31.3062ZM56.582 26.15C56.7945 26.15 57.0022 26.213 57.1788 26.331C57.3555 26.4491 57.4932 26.6168 57.5745 26.8131C57.6558 27.0094 57.6771 27.2254 57.6356 27.4338C57.5942 27.6422 57.4919 27.8336 57.3416 27.9838C57.1914 28.134 57 28.2363 56.7916 28.2778C56.5832 28.3192 56.3672 28.298 56.1709 28.2167C55.9747 28.1353 55.8069 27.9977 55.6889 27.821C55.5708 27.6444 55.5078 27.4367 55.5078 27.2242C55.5082 26.9394 55.6215 26.6664 55.8229 26.4651C56.0243 26.2637 56.2973 26.1504 56.582 26.15ZM56.582 43.7656C56.0688 43.7666 55.5699 43.9349 55.1611 44.2451C54.7522 44.5553 54.4556 44.9904 54.3164 45.4844H51.582L49.9992 44.693C49.9235 44.6551 49.8411 44.6325 49.7566 44.6265C49.6722 44.6205 49.5874 44.6312 49.5071 44.658C49.4268 44.6848 49.3525 44.7271 49.2886 44.7825C49.2246 44.838 49.1722 44.9055 49.1344 44.9812C49.0965 45.057 49.0739 45.1394 49.0679 45.2238C49.0619 45.3083 49.0726 45.3931 49.0994 45.4734C49.1262 45.5537 49.1685 45.6279 49.224 45.6919C49.2794 45.7558 49.3469 45.8082 49.4227 45.8461L51.1414 46.7055C51.2309 46.7501 51.3296 46.7734 51.4297 46.7734H54.3203C54.4411 47.1952 54.6771 47.575 55.0019 47.87C55.3267 48.165 55.7273 48.3636 56.1587 48.4434C56.5901 48.5233 57.0353 48.4812 57.4441 48.3219C57.8529 48.1626 58.2092 47.8924 58.4729 47.5417C58.7366 47.191 58.8972 46.7737 58.9368 46.3368C58.9763 45.8998 58.8932 45.4605 58.6968 45.0681C58.5003 44.6758 58.1983 44.3461 57.8247 44.116C57.4511 43.8859 57.0208 43.7645 56.582 43.7656ZM56.582 47.2031C56.3696 47.2031 56.1619 47.1401 55.9852 47.0221C55.8086 46.904 55.6709 46.7363 55.5896 46.54C55.5083 46.3437 55.487 46.1277 55.5285 45.9193C55.5699 45.7109 55.6722 45.5195 55.8224 45.3693C55.9727 45.2191 56.1641 45.1168 56.3725 45.0753C56.5808 45.0339 56.7968 45.0551 56.9931 45.1364C57.1894 45.2178 57.3572 45.3554 57.4752 45.5321C57.5932 45.7087 57.6562 45.9164 57.6562 46.1289C57.656 46.4137 57.5428 46.6868 57.3414 46.8883C57.14 47.0897 56.8669 47.2029 56.582 47.2031ZM56.582 33.4531C56.0688 33.4541 55.5699 33.6224 55.1611 33.9326C54.7522 34.2428 54.4556 34.6779 54.3164 35.1719H51.4258C51.3411 35.1718 51.2573 35.1885 51.1792 35.2209C51.101 35.2534 51.03 35.301 50.9703 35.3609L50.1109 36.2203C49.9901 36.3411 49.9223 36.5049 49.9223 36.6758C49.9223 36.8466 49.9901 37.0104 50.1109 37.1312C50.2317 37.252 50.3956 37.3199 50.5664 37.3199C50.7372 37.3199 50.9011 37.252 51.0219 37.1312L51.693 36.4609H54.3164C54.4371 36.8826 54.673 37.2622 54.9976 37.5572C55.3222 37.8522 55.7226 38.0508 56.1538 38.1308C56.5851 38.2107 57.0301 38.1689 57.4388 38.0099C57.8476 37.8509 58.2039 37.5811 58.4678 37.2308C58.7317 36.8804 58.8927 36.4635 58.9327 36.0267C58.9726 35.5899 58.89 35.1507 58.6942 34.7583C58.4983 34.3659 58.1968 34.0358 57.8237 33.8053C57.4506 33.5747 57.0206 33.4528 56.582 33.4531ZM56.582 36.8906C56.3696 36.8906 56.1619 36.8276 55.9852 36.7096C55.8086 36.5915 55.6709 36.4238 55.5896 36.2275C55.5083 36.0312 55.487 35.8152 55.5285 35.6068C55.5699 35.3984 55.6722 35.207 55.8224 35.0568C55.9727 34.9066 56.1641 34.8043 56.3725 34.7628C56.5808 34.7214 56.7968 34.7426 56.9931 34.8239C57.1894 34.9053 57.3572 35.0429 57.4752 35.2196C57.5932 35.3962 57.6562 35.6039 57.6562 35.8164C57.656 36.1012 57.5428 36.3743 57.3414 36.5758C57.14 36.7772 56.8669 36.8904 56.582 36.8906ZM56.582 52.3594C56.0688 52.3603 55.5699 52.5287 55.1611 52.8389C54.7522 53.1491 54.4556 53.5841 54.3164 54.0781H50.0289L47.6445 50.8984C47.5937 50.8307 47.5301 50.7737 47.4573 50.7305C47.3845 50.6874 47.3038 50.6591 47.2201 50.6471C47.1363 50.6351 47.0509 50.6398 46.9689 50.6608C46.887 50.6818 46.8099 50.7187 46.7422 50.7695C46.6745 50.8203 46.6174 50.8839 46.5743 50.9568C46.5312 51.0296 46.5028 51.1102 46.4909 51.194C46.4789 51.2778 46.4835 51.3631 46.5045 51.4451C46.5255 51.5271 46.5625 51.6042 46.6133 51.6719L49.1914 55.1094C49.2514 55.1894 49.3293 55.2544 49.4188 55.2991C49.5083 55.3439 49.607 55.3672 49.707 55.3672H54.3164C54.4371 55.7888 54.673 56.1685 54.9976 56.4634C55.3222 56.7584 55.7226 56.957 56.1538 57.037C56.5851 57.117 57.0301 57.0751 57.4388 56.9161C57.8476 56.7572 58.2039 56.4874 58.4678 56.137C58.7317 55.7867 58.8927 55.3697 58.9327 54.933C58.9726 54.4962 58.89 54.0569 58.6942 53.6645C58.4983 53.2721 58.1968 52.9421 57.8237 52.7115C57.4506 52.481 57.0206 52.359 56.582 52.3594ZM56.582 55.7969C56.3696 55.7969 56.1619 55.7339 55.9852 55.6158C55.8086 55.4978 55.6709 55.33 55.5896 55.1337C55.5083 54.9374 55.487 54.7215 55.5285 54.5131C55.5699 54.3047 55.6722 54.1133 55.8224 53.9631C55.9727 53.8128 56.1641 53.7105 56.3725 53.6691C56.5808 53.6276 56.7968 53.6489 56.9931 53.7302C57.1894 53.8115 57.3572 53.9492 57.4752 54.1258C57.5932 54.3025 57.6562 54.5102 57.6562 54.7226C57.656 55.0075 57.5428 55.2806 57.3414 55.482C57.14 55.6834 56.8669 55.7967 56.582 55.7969Z" fill="#635AD9"/>
</svg>
