<svg width="80" height="81" viewBox="0 0 80 81" fill="none" xmlns="http://www.w3.org/2000/svg">
<path fill-rule="evenodd" clip-rule="evenodd" d="M41.6423 0.133352C52.9119 -1.19922 62.7327 7.69021 70.1267 16.3071C76.9324 24.2384 80.2366 34.3672 79.9868 44.8196C79.7434 55.0038 76.2014 65.0124 68.7956 71.9997C61.5831 78.8046 51.5532 80.9054 41.6423 80.997C31.6177 81.0895 21.5454 79.094 13.9834 72.5059C5.89611 65.4601 -0.987939 55.4945 0.116957 44.8196C1.16905 34.6549 12.2234 29.8142 19.1767 22.3317C26.6269 14.3143 30.7791 1.41788 41.6423 0.133352Z" fill="#ECF8FF"/>
<g clip-path="url(#clip0_112_2060)">
<path d="M39.667 47.6667H46.3337C46.8641 47.6667 47.3728 47.456 47.7479 47.0809C48.1229 46.7058 48.3337 46.1971 48.3337 45.6667V39.6667C48.3337 39.1362 48.1229 38.6275 47.7479 38.2525C47.3728 37.8774 46.8641 37.6667 46.3337 37.6667V36.3333C46.3337 35.4493 45.9825 34.6014 45.3573 33.9763C44.7322 33.3512 43.8844 33 43.0003 33C42.1163 33 41.2684 33.3512 40.6433 33.9763C40.0182 34.6014 39.667 35.4493 39.667 36.3333V37.6667C39.1366 37.6667 38.6279 37.8774 38.2528 38.2525C37.8777 38.6275 37.667 39.1362 37.667 39.6667V45.6667C37.667 46.1971 37.8777 46.7058 38.2528 47.0809C38.6279 47.456 39.1366 47.6667 39.667 47.6667ZM41.0003 36.3333C41.0003 35.8029 41.211 35.2942 41.5861 34.9191C41.9612 34.544 42.4699 34.3333 43.0003 34.3333C43.5308 34.3333 44.0395 34.544 44.4145 34.9191C44.7896 35.2942 45.0003 35.8029 45.0003 36.3333V37.6667H41.0003V36.3333ZM39.0003 39.6667C39.0003 39.4899 39.0706 39.3203 39.1956 39.1953C39.3206 39.0702 39.4902 39 39.667 39H46.3337C46.5105 39 46.68 39.0702 46.8051 39.1953C46.9301 39.3203 47.0003 39.4899 47.0003 39.6667V45.6667C47.0003 45.8435 46.9301 46.013 46.8051 46.1381C46.68 46.2631 46.5105 46.3333 46.3337 46.3333H39.667C39.4902 46.3333 39.3206 46.2631 39.1956 46.1381C39.0706 46.013 39.0003 45.8435 39.0003 45.6667V39.6667Z" fill="#635AD9"/>
<path d="M42.3333 44.2107V44.3333C42.3333 44.5101 42.4036 44.6797 42.5286 44.8047C42.6536 44.9298 42.8232 45 43 45C43.1768 45 43.3464 44.9298 43.4714 44.8047C43.5964 44.6797 43.6667 44.5101 43.6667 44.3333V44.2107C44.1115 44.0534 44.4864 43.7439 44.7251 43.337C44.9638 42.9301 45.051 42.4518 44.9712 41.9868C44.8914 41.5218 44.6498 41.1 44.2891 40.7959C43.9284 40.4918 43.4718 40.325 43 40.325C42.5282 40.325 42.0716 40.4918 41.7109 40.7959C41.3502 41.1 41.1086 41.5218 41.0288 41.9868C40.949 42.4518 41.0362 42.9301 41.2749 43.337C41.5136 43.7439 41.8885 44.0534 42.3333 44.2107ZM43 41.6667C43.1768 41.6667 43.3464 41.7369 43.4714 41.8619C43.5964 41.9869 43.6667 42.1565 43.6667 42.3333C43.6667 42.5101 43.5964 42.6797 43.4714 42.8047C43.3464 42.9298 43.1768 43 43 43C42.8232 43 42.6536 42.9298 42.5286 42.8047C42.4036 42.6797 42.3333 42.5101 42.3333 42.3333C42.3333 42.1565 42.4036 41.9869 42.5286 41.8619C42.6536 41.7369 42.8232 41.6667 43 41.6667Z" fill="#635AD9"/>
<path d="M31.6669 41C31.6669 47.2593 36.7409 52.3333 43.0002 52.3333C49.2596 52.3333 54.3336 47.2593 54.3336 41C54.3336 34.7407 49.2596 29.6667 43.0002 29.6667C36.7436 29.6733 31.6736 34.7433 31.6669 41ZM43.0002 31C48.5229 31 53.0002 35.4773 53.0002 41C53.0002 46.5227 48.5229 51 43.0002 51C37.4776 51 33.0002 46.5227 33.0002 41C33.0069 35.48 37.4802 31.0067 43.0002 31ZM56.3336 55.6667C55.7441 55.6689 55.1719 55.8663 54.7066 56.2282C54.2413 56.59 53.9089 57.0959 53.7616 57.6667H49.0002V53.6367C50.4908 52.935 51.8451 51.9746 53.0002 50.8C53.063 50.7378 53.1127 50.6637 53.1466 50.5821C53.1805 50.5005 53.1978 50.413 53.1976 50.3247C53.1973 50.2363 53.1795 50.1489 53.1452 50.0675C53.1109 49.9861 53.0607 49.9123 52.9976 49.8505C52.9345 49.7886 52.8598 49.7399 52.7777 49.7072C52.6956 49.6745 52.6079 49.6584 52.5195 49.66C52.4312 49.6615 52.344 49.6805 52.2631 49.716C52.1822 49.7515 52.1092 49.8027 52.0482 49.8667C50.9163 51.0239 49.5726 51.953 48.0902 52.6033C48.0007 52.6389 47.9201 52.6937 47.8542 52.764C47.8469 52.772 47.8429 52.7827 47.8356 52.792C47.7868 52.8462 47.7474 52.9082 47.7189 52.9753C47.7058 53.0172 47.6971 53.0603 47.6929 53.104C47.6805 53.1417 47.6718 53.1806 47.6669 53.22V57.6667C47.6669 58.0203 47.8074 58.3594 48.0574 58.6095C48.3075 58.8595 48.6466 59 49.0002 59H53.7616C53.8871 59.4817 54.1452 59.9185 54.5065 60.2609C54.8679 60.6033 55.318 60.8376 55.8057 60.937C56.2935 61.0364 56.7994 60.9971 57.2659 60.8235C57.7325 60.6499 58.141 60.349 58.4451 59.9548C58.7492 59.5607 58.9367 59.0892 58.9863 58.5939C59.0359 58.0986 58.9456 57.5993 58.7257 57.1527C58.5058 56.7061 58.1651 56.3301 57.7422 56.0675C57.3194 55.8048 56.8314 55.6659 56.3336 55.6667ZM56.3336 59.6667C55.9799 59.6667 55.6408 59.5262 55.3907 59.2761C55.1407 59.0261 55.0002 58.6869 55.0002 58.3333C55.0002 57.9797 55.1407 57.6406 55.3907 57.3905C55.6408 57.1405 55.9799 57 56.3336 57C56.6872 57 57.0263 57.1405 57.2764 57.3905C57.5264 57.6406 57.6669 57.9797 57.6669 58.3333C57.6669 58.6869 57.5264 59.0261 57.2764 59.2761C57.0263 59.5262 56.6872 59.6667 56.3336 59.6667ZM28.2389 48.3333H31.4602C31.4656 48.3333 31.4702 48.33 31.4762 48.33C31.5425 48.327 31.608 48.3138 31.6702 48.2907C31.7013 48.2805 31.7316 48.268 31.7609 48.2533C31.7682 48.2493 31.7769 48.248 31.7842 48.2433C31.7916 48.2387 31.8029 48.2247 31.8136 48.2173C31.874 48.18 31.9277 48.1327 31.9722 48.0773C31.9801 48.067 31.9874 48.0564 31.9942 48.0453C32.0374 47.9846 32.0698 47.917 32.0902 47.8453C32.0902 47.8353 32.0942 47.8253 32.0962 47.8153C32.1124 47.7672 32.1226 47.7173 32.1269 47.6667C32.1234 47.6415 32.1183 47.6165 32.1116 47.592C32.1116 47.5833 32.1116 47.5753 32.1069 47.566C32.0956 47.4878 32.07 47.4123 32.0316 47.3433L32.0282 47.3327C31.3446 46.1527 30.8578 44.8692 30.5869 43.5327C30.5694 43.4469 30.5351 43.3654 30.4861 43.2928C30.4371 43.2202 30.3743 43.158 30.3013 43.1097C30.2282 43.0614 30.1464 43.028 30.0604 43.0114C29.9744 42.9947 29.886 42.9951 29.8002 43.0127C29.7144 43.0302 29.6329 43.0644 29.5604 43.1134C29.4878 43.1624 29.4256 43.2252 29.3773 43.2983C29.329 43.3713 29.2956 43.4532 29.2789 43.5392C29.2623 43.6251 29.2627 43.7135 29.2802 43.7993C29.5042 44.9053 29.8629 45.9793 30.3469 46.9993H28.2389C28.0766 46.3709 27.6907 45.8232 27.1536 45.4589C26.6164 45.0946 25.9648 44.9388 25.3209 45.0206C24.677 45.1024 24.0851 45.4162 23.656 45.9032C23.2269 46.3902 22.9902 47.0169 22.9902 47.666C22.9902 48.315 23.2269 48.9418 23.656 49.4288C24.0851 49.9158 24.677 50.2296 25.3209 50.3114C25.9648 50.3932 26.6164 50.2373 27.1536 49.8731C27.6907 49.5088 28.0766 48.9618 28.2389 48.3333ZM25.6669 49C25.3133 49 24.9741 48.8595 24.7241 48.6095C24.474 48.3594 24.3336 48.0203 24.3336 47.6667C24.3336 47.313 24.474 46.9739 24.7241 46.7238C24.9741 46.4738 25.3133 46.3333 25.6669 46.3333C26.0205 46.3333 26.3597 46.4738 26.6097 46.7238C26.8597 46.9739 27.0002 47.313 27.0002 47.6667C27.0002 48.0203 26.8597 48.3594 26.6097 48.6095C26.3597 48.8595 26.0205 49 25.6669 49Z" fill="#635AD9"/>
<path d="M23 34.3333C22.9992 34.9816 23.235 35.6078 23.6631 36.0945C24.0913 36.5812 24.6823 36.8949 25.3254 36.9767C25.9684 37.0585 26.6192 36.9029 27.1556 36.5389C27.692 36.175 28.0771 35.6278 28.2387 35H31.478C31.544 34.996 31.6087 34.9827 31.6707 34.9607C31.7 34.9513 31.7285 34.9397 31.756 34.926C31.7915 34.9073 31.8251 34.8849 31.856 34.8593C31.9122 34.8169 31.9609 34.7653 32 34.7067C32.0087 34.694 32.02 34.6847 32.028 34.6713C32.8828 33.1879 34.03 31.8935 35.4 30.8667C35.47 30.8141 35.529 30.7483 35.5737 30.673C35.6183 30.5977 35.6476 30.5143 35.66 30.4276C35.6724 30.341 35.6675 30.2527 35.6458 30.1679C35.6241 30.0831 35.5859 30.0034 35.5333 29.9333C35.4808 29.8633 35.415 29.8043 35.3397 29.7597C35.2643 29.7151 35.181 29.6858 35.0943 29.6734C35.0076 29.661 34.9194 29.6658 34.8345 29.6875C34.7497 29.7093 34.67 29.7475 34.6 29.8C33.197 30.8568 32.0058 32.1686 31.0887 33.6667H28.2387C28.0771 33.0389 27.692 32.4917 27.1556 32.1278C26.6192 31.7638 25.9684 31.6082 25.3254 31.69C24.6823 31.7718 24.0913 32.0855 23.6631 32.5722C23.235 33.0589 22.9992 33.6851 23 34.3333ZM27 34.3333C27 34.687 26.8595 35.0261 26.6095 35.2761C26.3594 35.5262 26.0203 35.6667 25.6667 35.6667C25.313 35.6667 24.9739 35.5262 24.7239 35.2761C24.4738 35.0261 24.3333 34.687 24.3333 34.3333C24.3333 33.9797 24.4738 33.6406 24.7239 33.3905C24.9739 33.1405 25.313 33 25.6667 33C26.0203 33 26.3594 33.1405 26.6095 33.3905C26.8595 33.6406 27 33.9797 27 34.3333ZM60.3333 45C59.7439 45.0022 59.1717 45.1997 58.7064 45.5615C58.241 45.9234 57.9087 46.4292 57.7613 47H55.6527C56.1373 45.9808 56.4955 44.9062 56.7193 43.8C56.7547 43.6266 56.7197 43.4463 56.6222 43.2987C56.5246 43.1512 56.3724 43.0484 56.199 43.013C56.0256 42.9776 55.8453 43.0126 55.6977 43.1102C55.5501 43.2078 55.4474 43.36 55.412 43.5333C55.1416 44.8698 54.6552 46.1533 53.972 47.3333V47.342C53.9322 47.4125 53.9059 47.4898 53.8947 47.57C53.8947 47.5773 53.8947 47.584 53.89 47.5913C53.8833 47.616 53.8773 47.6413 53.8733 47.6667C53.8774 47.7191 53.8877 47.7708 53.904 47.8207C53.9233 47.9021 53.9584 47.9788 54.0073 48.0467C54.014 48.0567 54.0193 48.0667 54.0267 48.076C54.0718 48.1316 54.1259 48.1794 54.1867 48.2173C54.1973 48.2247 54.204 48.236 54.2153 48.2427C54.2267 48.2493 54.2313 48.2487 54.2387 48.2527C54.268 48.268 54.2987 48.2807 54.3307 48.2907C54.3926 48.313 54.4576 48.326 54.5233 48.3293C54.5293 48.3293 54.534 48.3327 54.54 48.3327H57.7613C57.8868 48.8145 58.1448 49.2514 58.5061 49.5939C58.8674 49.9364 59.3174 50.1707 59.8052 50.2703C60.293 50.3698 60.7989 50.3306 61.2655 50.157C61.7321 49.9834 62.1407 49.6825 62.4449 49.2884C62.749 48.8943 62.9366 48.4228 62.9862 47.9274C63.0358 47.4321 62.9456 46.9327 62.7257 46.4861C62.5058 46.0395 62.165 45.6635 61.7421 45.4008C61.3192 45.1381 60.8312 44.9992 60.3333 45ZM60.3333 49C59.9797 49 59.6406 48.8595 59.3905 48.6095C59.1405 48.3594 59 48.0203 59 47.6667C59 47.3131 59.1405 46.9739 59.3905 46.7239C59.6406 46.4738 59.9797 46.3333 60.3333 46.3333C60.687 46.3333 61.0261 46.4738 61.2761 46.7239C61.5262 46.9739 61.6667 47.3131 61.6667 47.6667C61.6667 48.0203 61.5262 48.3594 61.2761 48.6095C61.0261 48.8595 60.687 49 60.3333 49ZM38.3333 53.2313V53.22C38.3291 53.1826 38.3217 53.1456 38.3113 53.1093C38.3066 53.0641 38.2975 53.0195 38.284 52.976C38.2559 52.9099 38.2172 52.8489 38.1693 52.7953C38.1607 52.7853 38.1567 52.7733 38.148 52.764C38.0819 52.6937 38.0011 52.6389 37.9113 52.6033C36.1663 51.8331 34.6159 50.6819 33.374 49.234C33.3179 49.1649 33.2485 49.1078 33.17 49.066C33.0915 49.0241 33.0053 48.9984 32.9167 48.9904C32.8281 48.9824 32.7387 48.9922 32.654 49.0192C32.5692 49.0462 32.4907 49.09 32.4231 49.1478C32.3554 49.2057 32.3001 49.2765 32.2603 49.3561C32.2205 49.4357 32.197 49.5224 32.1913 49.6112C32.1855 49.7 32.1976 49.7891 32.2268 49.8732C32.256 49.9572 32.3018 50.0346 32.3613 50.1007C33.6434 51.593 35.2235 52.8006 37 53.646V57.6667H32.2387C32.0764 57.0382 31.6905 56.4906 31.1533 56.1263C30.6161 55.762 29.9645 55.6061 29.3207 55.6879C28.6768 55.7697 28.0848 56.0835 27.6558 56.5705C27.2267 57.0575 26.99 57.6843 26.99 58.3333C26.99 58.9824 27.2267 59.6092 27.6558 60.0962C28.0848 60.5832 28.6768 60.897 29.3207 60.9788C29.9645 61.0605 30.6161 60.9047 31.1533 60.5404C31.6905 60.1761 32.0764 59.6285 32.2387 59H37C37.3536 59 37.6928 58.8595 37.9428 58.6095C38.1929 58.3594 38.3333 58.0203 38.3333 57.6667V53.2313ZM29.6667 59.6667C29.313 59.6667 28.9739 59.5262 28.7239 59.2762C28.4738 59.0261 28.3333 58.687 28.3333 58.3333C28.3333 57.9797 28.4738 57.6406 28.7239 57.3905C28.9739 57.1405 29.313 57 29.6667 57C30.0203 57 30.3594 57.1405 30.6095 57.3905C30.8595 57.6406 31 57.9797 31 58.3333C31 58.687 30.8595 59.0261 30.6095 59.2762C30.3594 59.5262 30.0203 59.6667 29.6667 59.6667ZM45.5333 53.4133C43.8611 53.7492 42.1389 53.7492 40.4667 53.4133C40.38 53.3935 40.2903 53.3911 40.2027 53.4064C40.1151 53.4218 40.0315 53.4544 39.9568 53.5026C39.882 53.5507 39.8176 53.6133 39.7674 53.6866C39.7172 53.76 39.6822 53.8427 39.6644 53.9298C39.6466 54.0169 39.6465 54.1066 39.6639 54.1938C39.6813 54.281 39.716 54.3638 39.7659 54.4374C39.8158 54.5109 39.8799 54.5738 39.9545 54.6222C40.029 54.6706 40.1125 54.7037 40.2 54.7193C40.904 54.856 41.6167 54.9393 42.3333 54.9667V60.3333C42.3333 60.5102 42.4036 60.6797 42.5286 60.8048C42.6536 60.9298 42.8232 61 43 61C43.1768 61 43.3464 60.9298 43.4714 60.8048C43.5964 60.6797 43.6667 60.5102 43.6667 60.3333V54.9667C44.3831 54.9388 45.0962 54.8561 45.8 54.7193C45.9696 54.6804 46.1173 54.5767 46.2115 54.4304C46.3057 54.2841 46.3389 54.1067 46.3041 53.9362C46.2693 53.7657 46.1692 53.6155 46.0252 53.5178C45.8812 53.4201 45.7046 53.3826 45.5333 53.4133ZM37 23H32.2387C32.0764 22.3716 31.6905 21.8239 31.1533 21.4596C30.6161 21.0953 29.9645 20.9395 29.3207 21.0213C28.6768 21.103 28.0848 21.4168 27.6558 21.9039C27.2267 22.3909 26.99 23.0176 26.99 23.6667C26.99 24.3157 27.2267 24.9425 27.6558 25.4295C28.0848 25.9165 28.6768 26.2303 29.3207 26.3121C29.9645 26.3939 30.6161 26.238 31.1533 25.8737C31.6905 25.5095 32.0764 24.9618 32.2387 24.3333H37V28.7813C37 28.808 37.0127 28.834 37.016 28.8607C37.0227 28.93 37.0407 28.9973 37.0687 29.0607C37.1104 29.1502 37.1727 29.2286 37.2507 29.2893C37.3106 29.3386 37.3784 29.3774 37.4513 29.404C37.4987 29.4193 37.548 29.4287 37.598 29.4333C37.6199 29.4393 37.6422 29.444 37.6647 29.4473C37.7602 29.4453 37.8541 29.4226 37.94 29.3807C38.7521 29.0285 39.599 28.7626 40.4667 28.5873C40.64 28.552 40.7922 28.4492 40.8898 28.3016C40.9874 28.154 41.0224 27.9737 40.987 27.8003C40.9516 27.627 40.8489 27.4748 40.7013 27.3772C40.5537 27.2796 40.3734 27.2446 40.2 27.28C39.5667 27.4093 38.9427 27.5833 38.3333 27.8V24.3333C38.3333 23.9797 38.1929 23.6406 37.9428 23.3905C37.6928 23.1405 37.3536 23 37 23ZM29.6667 25C29.313 25 28.9739 24.8595 28.7239 24.6095C28.4738 24.3594 28.3333 24.0203 28.3333 23.6667C28.3333 23.3131 28.4738 22.9739 28.7239 22.7239C28.9739 22.4738 29.313 22.3333 29.6667 22.3333C30.0203 22.3333 30.3594 22.4738 30.6095 22.7239C30.8595 22.9739 31 23.3131 31 23.6667C31 24.0203 30.8595 24.3594 30.6095 24.6095C30.3594 24.8595 30.0203 25 29.6667 25ZM53.7613 24.3333C53.9236 24.9618 54.3095 25.5095 54.8467 25.8737C55.3839 26.238 56.0355 26.3939 56.6793 26.3121C57.3232 26.2303 57.9152 25.9165 58.3442 25.4295C58.7733 24.9425 59.01 24.3157 59.01 23.6667C59.01 23.0176 58.7733 22.3909 58.3442 21.9039C57.9152 21.4168 57.3232 21.103 56.6793 21.0213C56.0355 20.9395 55.3839 21.0953 54.8467 21.4596C54.3095 21.8239 53.9236 22.3716 53.7613 23H49C48.6464 23 48.3072 23.1405 48.0572 23.3905C47.8071 23.6406 47.6667 23.9797 47.6667 24.3333V28.7793C47.6707 28.8187 47.6785 28.8575 47.69 28.8953C47.694 28.9393 47.7033 28.982 47.716 29.024C47.7447 29.0907 47.784 29.1533 47.8327 29.2073C47.84 29.216 47.844 29.2273 47.8513 29.2353C47.9173 29.3053 47.998 29.3607 48.0873 29.396C49.5695 30.0454 50.9131 30.9733 52.0453 32.1293C52.1054 32.1961 52.1783 32.25 52.2596 32.2878C52.341 32.3257 52.4292 32.3467 52.5189 32.3497C52.6086 32.3527 52.6979 32.3375 52.7816 32.3051C52.8653 32.2727 52.9416 32.2237 53.0059 32.1611C53.0702 32.0985 53.1212 32.0235 53.1559 31.9408C53.1905 31.858 53.2081 31.769 53.2075 31.6793C53.207 31.5895 53.1883 31.5008 53.1527 31.4185C53.117 31.3361 53.0651 31.2618 53 31.2C51.8449 30.0254 50.4906 29.065 49 28.3633V24.3333H53.7613ZM56.3333 22.3333C56.687 22.3333 57.0261 22.4738 57.2761 22.7239C57.5262 22.9739 57.6667 23.3131 57.6667 23.6667C57.6667 24.0203 57.5262 24.3594 57.2761 24.6095C57.0261 24.8595 56.687 25 56.3333 25C55.9797 25 55.6406 24.8595 55.3905 24.6095C55.1405 24.3594 55 24.0203 55 23.6667C55 23.3131 55.1405 22.9739 55.3905 22.7239C55.6406 22.4738 55.9797 22.3333 56.3333 22.3333ZM43 21C42.8232 21 42.6536 21.0702 42.5286 21.1953C42.4036 21.3203 42.3333 21.4899 42.3333 21.6667V27.6667C42.3333 27.8435 42.4036 28.0131 42.5286 28.1381C42.6536 28.2631 42.8232 28.3333 43 28.3333C43.8507 28.3333 44.7 28.418 45.5333 28.5867C45.7046 28.6174 45.8812 28.5799 46.0252 28.4822C46.1692 28.3845 46.2693 28.2343 46.3041 28.0638C46.3389 27.8933 46.3057 27.716 46.2115 27.5696C46.1173 27.4233 45.9696 27.3196 45.8 27.2807C45.0962 27.1439 44.3831 27.0612 43.6667 27.0333V21.6667C43.6667 21.4899 43.5964 21.3203 43.4714 21.1953C43.3464 21.0702 43.1768 21 43 21ZM57.7613 35C57.9236 35.6284 58.3095 36.1761 58.8467 36.5404C59.3839 36.9047 60.0355 37.0605 60.6793 36.9788C61.3232 36.897 61.9152 36.5832 62.3442 36.0962C62.7733 35.6092 63.01 34.9824 63.01 34.3333C63.01 33.6843 62.7733 33.0575 62.3442 32.5705C61.9152 32.0835 61.3232 31.7697 60.6793 31.6879C60.0355 31.6061 59.3839 31.762 58.8467 32.1263C58.3095 32.4905 57.9236 33.0382 57.7613 33.6667H54.54C54.5273 33.6667 54.5173 33.6733 54.5053 33.6733C54.4667 33.6775 54.4285 33.6853 54.3913 33.6967C54.3366 33.7075 54.2835 33.7254 54.2333 33.75C54.228 33.75 54.2213 33.75 54.2153 33.7567C54.2093 33.7633 54.198 33.7747 54.1867 33.782C54.1259 33.82 54.0718 33.8677 54.0267 33.9233C54.0193 33.9327 54.014 33.9427 54.0073 33.9527C53.9632 34.0131 53.93 34.0808 53.9093 34.1527C53.9093 34.1613 53.9093 34.17 53.904 34.1787C53.8876 34.2288 53.8773 34.2807 53.8733 34.3333C53.8767 34.3587 53.882 34.384 53.888 34.4093C53.888 34.4167 53.8913 34.4233 53.8927 34.4307C53.904 34.5107 53.93 34.588 53.97 34.6587V34.6673C55.0819 36.5926 55.667 38.7768 55.6667 41C55.6667 41.1768 55.7369 41.3464 55.8619 41.4714C55.987 41.5964 56.1565 41.6667 56.3333 41.6667H62.3333C62.5101 41.6667 62.6797 41.5964 62.8047 41.4714C62.9298 41.3464 63 41.1768 63 41C63 40.8232 62.9298 40.6536 62.8047 40.5286C62.6797 40.4036 62.5101 40.3333 62.3333 40.3333H56.978C56.8906 38.4849 56.4374 36.6721 55.6447 35H57.7613ZM60.3333 33C60.687 33 61.0261 33.1405 61.2761 33.3905C61.5262 33.6406 61.6667 33.9797 61.6667 34.3333C61.6667 34.687 61.5262 35.0261 61.2761 35.2761C61.0261 35.5262 60.687 35.6667 60.3333 35.6667C59.9797 35.6667 59.6406 35.5262 59.3905 35.2761C59.1405 35.0261 59 34.687 59 34.3333C59 33.9797 59.1405 33.6406 59.3905 33.3905C59.6406 33.1405 59.9797 33 60.3333 33ZM23.6667 41.6667H29.6667C29.8435 41.6667 30.013 41.5964 30.1381 41.4714C30.2631 41.3464 30.3333 41.1768 30.3333 41C30.3319 39.653 30.5455 38.3144 30.966 37.0347C30.9934 36.9515 31.0041 36.8638 30.9975 36.7765C30.991 36.6891 30.9673 36.604 30.9278 36.5258C30.8884 36.4477 30.8339 36.378 30.7675 36.3209C30.7011 36.2638 30.6242 36.2204 30.541 36.193C30.4578 36.1656 30.3701 36.1549 30.2828 36.1615C30.1955 36.168 30.1103 36.1917 30.0321 36.2312C29.954 36.2707 29.8844 36.3251 29.8273 36.3915C29.7702 36.4579 29.7267 36.5348 29.6993 36.618C29.3077 37.8202 29.0812 39.0701 29.026 40.3333H23.6667C23.4899 40.3333 23.3203 40.4036 23.1953 40.5286C23.0702 40.6536 23 40.8232 23 41C23 41.1768 23.0702 41.3464 23.1953 41.4714C23.3203 41.5964 23.4899 41.6667 23.6667 41.6667Z" fill="#635AD9"/>
</g>
<defs>
<clipPath id="clip0_112_2060">
<rect width="40" height="40" fill="white" transform="translate(23 21)"/>
</clipPath>
</defs>
</svg>
