<svg width="848" height="733" viewBox="0 0 848 733" fill="none" xmlns="http://www.w3.org/2000/svg">
<path d="M815.474 394.487C815.474 394.487 627.553 257.316 374.512 258.421C121.452 259.518 518.172 703.213 518.172 703.213C518.164 703.198 496.171 678.154 496.171 678.154" stroke="white" stroke-opacity="0.15" stroke-width="0.877694"/>
<path d="M805.141 384.4C805.141 384.4 618.593 242.697 365.324 245.504C112.066 248.31 504.189 708.107 504.189 708.107C504.181 708.092 482.447 682.137 482.447 682.137" stroke="white" stroke-opacity="0.15" stroke-width="0.877694"/>
<path d="M794.532 374.004C794.532 374.004 609.339 227.752 355.851 232.268C102.365 236.787 489.929 712.669 489.929 712.669C489.921 712.653 468.446 685.788 468.446 685.788" stroke="white" stroke-opacity="0.15" stroke-width="0.877694"/>
<path d="M783.52 363.148C783.52 363.148 599.668 212.345 345.947 218.57C92.2199 224.797 475.254 716.772 475.254 716.772C475.245 716.756 454.027 688.979 454.027 688.979" stroke="white" stroke-opacity="0.15" stroke-width="0.877694"/>
<path d="M772.461 352.237C772.461 352.237 589.945 196.897 335.978 204.827C82.0114 212.759 460.527 720.835 460.527 720.835C460.518 720.82 439.555 692.131 439.555 692.131" stroke="white" stroke-opacity="0.15" stroke-width="0.877694"/>
<path d="M761.34 341.277C761.34 341.277 580.14 181.382 325.911 191.017C71.6741 200.657 445.716 724.838 445.716 724.838C445.708 724.822 424.998 695.221 424.998 695.221" stroke="white" stroke-opacity="0.15" stroke-width="0.877694"/>
<path d="M750.186 330.258C750.186 330.258 570.291 165.804 315.768 177.149C61.2455 188.495 430.843 728.79 430.843 728.79C430.834 728.774 410.376 698.261 410.376 698.261" stroke="white" stroke-opacity="0.15" stroke-width="0.877694"/>
<path d="M738.991 319.198C738.991 319.198 560.388 150.182 305.579 163.245C50.7723 176.292 415.936 732.716 415.936 732.716C415.927 732.699 395.719 701.272 395.719 701.272" stroke="white" stroke-opacity="0.15" stroke-width="0.877694"/>
<path d="M448.023 156.482C448.023 156.482 756.565 242.584 841.552 445.843C926.537 649.087 1 539.73 1 539.73L53.132 545.583" stroke="white" stroke-opacity="0.15" stroke-width="0.877694"/>
<path d="M433.649 147.05C433.649 147.05 736.871 235.114 823.689 437.441C910.511 639.766 3.66113 523.314 3.66113 523.314L54.7351 529.569" stroke="white" stroke-opacity="0.15" stroke-width="0.877694"/>
<path d="M419.136 135.996C419.136 135.996 717.035 226.019 805.678 427.411C894.324 628.802 6.18555 505.276 6.18555 505.276L56.1996 511.932" stroke="white" stroke-opacity="0.15" stroke-width="0.877694"/>
<path d="M404.483 124.832C404.483 124.832 697.058 216.809 787.525 417.279C877.997 617.749 8.56641 487.147 8.56641 487.147L57.5214 494.204" stroke="white" stroke-opacity="0.15" stroke-width="0.877694"/>
<path d="M389.71 113.554C389.71 113.554 676.949 207.467 769.235 407.014C861.518 606.546 10.8037 468.894 10.8037 468.894L58.6987 476.35" stroke="white" stroke-opacity="0.15" stroke-width="0.877694"/>
<path d="M374.809 102.225C374.809 102.225 656.717 198.085 750.807 396.693C844.9 595.301 12.8975 450.595 12.8975 450.595L59.7335 458.451" stroke="white" stroke-opacity="0.15" stroke-width="0.877694"/>
<path d="M359.332 91.2148C359.332 91.2148 635.908 189.016 731.793 386.685C827.681 584.353 14.3799 432.62 14.3799 432.62L60.1559 440.874" stroke="white" stroke-opacity="0.15" stroke-width="0.877694"/>
<path d="M343.637 80.2451C343.637 80.2451 614.877 179.984 712.548 376.712C810.23 573.452 15.6523 414.704 15.6523 414.704L60.3683 423.357" stroke="white" stroke-opacity="0.15" stroke-width="0.877694"/>
<path d="M326.998 69.9561C326.998 69.9561 592.892 171.615 692.355 367.428C791.814 563.226 15.9619 397.474 15.9619 397.474L59.6169 406.523" stroke="white" stroke-opacity="0.15" stroke-width="0.877694"/>
<path d="M309.626 60.1758C309.626 60.1758 570.177 163.764 671.408 358.633C772.641 553.5 15.5098 380.745 15.5098 380.745L58.1058 390.191" stroke="white" stroke-opacity="0.15" stroke-width="0.877694"/>
<path d="M291.567 50.876C291.567 50.876 546.772 156.388 649.759 350.311C752.749 544.233 14.3496 364.502 14.3496 364.502L55.8846 374.344" stroke="white" stroke-opacity="0.15" stroke-width="0.877694"/>
<path d="M272.892 42.0352C272.892 42.0352 522.745 149.467 627.477 342.443C732.218 535.432 12.5312 348.729 12.5312 348.729L53.0072 358.964" stroke="white" stroke-opacity="0.15" stroke-width="0.877694"/>
<path d="M254.134 33.7217C254.134 33.7217 498.626 143.055 605.103 335.11C711.577 527.15 10.6377 333.513 10.6377 333.513L50.0527 344.144" stroke="white" stroke-opacity="0.15" stroke-width="0.877694"/>
<path d="M235.375 25.8848C235.375 25.8848 474.505 137.127 582.701 328.232C690.899 519.336 8.69824 318.752 8.69824 318.752L47.0522 329.774" stroke="white" stroke-opacity="0.15" stroke-width="0.877694"/>
<path d="M217.912 18.7637C217.912 18.7637 451.674 131.911 561.575 322.064C671.476 512.216 8.02441 304.713 8.02441 304.713L45.3174 316.129" stroke="white" stroke-opacity="0.15" stroke-width="0.877694"/>
<path d="M201.573 12.2881C201.573 12.2881 429.958 127.321 541.554 316.534C653.149 505.746 8.42871 291.332 8.42871 291.332L44.6587 303.138" stroke="white" stroke-opacity="0.15" stroke-width="0.877694"/>
<path d="M186.295 6.38379C186.295 6.38379 409.301 123.311 522.565 311.569C635.829 499.826 9.87012 278.525 9.87012 278.525L45.0391 290.722" stroke="white" stroke-opacity="0.15" stroke-width="0.877694"/>
<path d="M171.993 1C171.993 1 389.614 119.816 504.535 307.13C619.455 494.445 12.2637 266.273 12.2637 266.273C12.2547 266.276 46.3707 278.861 46.3707 278.861" stroke="white" stroke-opacity="0.15" stroke-width="0.877694"/>
</svg>
