<svg width="39" height="38" viewBox="0 0 39 38" fill="none" xmlns="http://www.w3.org/2000/svg">
<path d="M37.9836 32.3H36.2103V13.1733C36.2103 12.7511 36.0414 12.3711 35.7036 12.0333C35.3659 11.6956 34.9859 11.5267 34.5636 11.5267H31.1436C30.9747 11.5267 30.8481 11.59 30.7636 11.7167C30.6792 11.8433 30.637 11.97 30.637 12.0967C30.637 12.2233 30.6792 12.35 30.7636 12.4767C30.8481 12.6033 30.9747 12.6667 31.1436 12.6667H34.5636C34.6481 12.6667 34.7536 12.7089 34.8803 12.7933C35.007 12.8778 35.0703 13.0044 35.0703 13.1733V32.3H33.9303V14.44C33.9303 14.2711 33.867 14.1233 33.7403 13.9967C33.6136 13.87 33.4659 13.8067 33.297 13.8067H25.8236L25.697 12.6667H28.737C28.9059 12.6667 29.0325 12.6033 29.117 12.4767C29.2014 12.35 29.2436 12.2233 29.2436 12.0967C29.2436 11.97 29.2014 11.8433 29.117 11.7167C29.0325 11.59 28.9059 11.5267 28.737 11.5267H25.697C25.5281 10.0067 25.1903 8.57111 24.6836 7.22C23.9236 4.85556 22.9103 2.87111 21.6436 1.26667C20.9681 0.422222 20.2503 0 19.4903 0C18.7303 0 18.0125 0.422222 17.337 1.26667C16.0703 2.87111 15.057 4.85556 14.297 7.22C13.7903 8.57111 13.4525 10.0067 13.2836 11.5267H4.41696C3.99474 11.5267 3.61474 11.6956 3.27696 12.0333C2.93918 12.3711 2.7703 12.7511 2.7703 13.1733V32.3H0.996962C0.912518 32.3 0.806962 32.3422 0.680295 32.4267C0.553629 32.5111 0.490295 32.6378 0.490295 32.8067V35.2133C0.490295 35.9733 0.76474 36.6278 1.31363 37.1767C1.86252 37.7256 2.51696 38 3.27696 38H35.7036C36.4636 38 37.1181 37.7256 37.667 37.1767C38.2159 36.6278 38.4903 35.9733 38.4903 35.2133V32.8067C38.4903 32.6378 38.427 32.5111 38.3003 32.4267C38.1736 32.3422 38.0681 32.3 37.9836 32.3ZM15.5636 6.84C16.7459 6.08 18.0547 5.7 19.4903 5.7C20.9258 5.7 22.2347 6.08 23.417 6.84C24.2614 9.20444 24.6836 11.6533 24.6836 14.1867C24.6836 15.1156 24.5147 16.2556 24.177 17.6067C24.0081 18.4511 23.6703 19.6756 23.1636 21.28L22.5303 23.0533H16.4503L15.817 20.9C14.8036 17.5222 14.297 15.2844 14.297 14.1867C14.297 11.5689 14.7192 9.12 15.5636 6.84ZM25.697 15.58L27.0903 16.9733L27.977 22.6733L24.3036 21.0267C25.0636 18.5778 25.5281 16.7622 25.697 15.58ZM14.677 21.0267L11.0036 22.6733L11.8903 16.9733L13.2836 15.58C13.537 16.9311 14.0014 18.7467 14.677 21.0267ZM16.3236 24.1933H22.657L23.1636 25.3333H15.817L16.3236 24.1933ZM20.8836 26.4733L19.4903 29.26L18.097 26.4733H20.8836ZM14.9303 28.7533C15.0147 28.7533 15.1203 28.7111 15.247 28.6267C15.3736 28.5422 15.437 28.4156 15.437 28.2467V26.4733H16.8303L18.9836 30.78C19.0681 30.9489 19.237 31.0333 19.4903 31.0333C19.7436 31.0333 19.9125 30.9489 19.997 30.78L22.1503 26.4733H23.5436V28.2467C23.5436 28.4156 23.607 28.5422 23.7336 28.6267C23.8603 28.7111 23.9659 28.7533 24.0503 28.7533C24.557 28.7533 24.9792 28.9433 25.317 29.3233C25.6547 29.7033 25.8236 30.1044 25.8236 30.5267C25.8236 30.6956 25.887 30.8222 26.0136 30.9067C26.1403 30.9911 26.2881 31.0333 26.457 31.0333H28.737C29.0747 31.0333 29.3914 31.16 29.687 31.4133C29.9825 31.6667 30.2147 31.9622 30.3836 32.3H8.59696C8.76585 31.9622 8.99807 31.6667 9.29363 31.4133C9.58918 31.16 9.90585 31.0333 10.2436 31.0333H12.5236C12.6925 31.0333 12.8403 30.9911 12.967 30.9067C13.0936 30.8222 13.157 30.6956 13.157 30.5267C13.157 30.1044 13.3259 29.7033 13.6636 29.3233C14.0014 28.9433 14.4236 28.7533 14.9303 28.7533ZM32.7903 32.3H31.5236C31.3547 31.6244 30.9959 31.0756 30.447 30.6533C29.8981 30.2311 29.3281 30.02 28.737 30.02H26.9636C26.7947 29.4289 26.5203 28.9222 26.1403 28.5C25.7603 28.0778 25.2747 27.8244 24.6836 27.74V25.9667L24.557 25.7133L23.5436 23.56L24.0503 22.04L28.4836 24.0667C28.6525 24.1511 28.8425 24.13 29.0536 24.0033C29.2647 23.8767 29.3281 23.7289 29.2436 23.56L28.1036 16.5933C28.1036 16.5089 28.0614 16.4244 27.977 16.34L26.5836 14.9467H32.7903V32.3ZM18.2236 1.9C18.7303 1.39333 19.1525 1.14 19.4903 1.14C19.8281 1.14 20.2503 1.39333 20.757 1.9C21.517 2.91333 22.1925 4.01111 22.7836 5.19333C21.6859 4.77111 20.5881 4.56 19.4903 4.56C18.3925 4.56 17.2947 4.77111 16.197 5.19333C16.7881 4.01111 17.4636 2.91333 18.2236 1.9ZM3.9103 13.1733C3.9103 13.0044 3.97363 12.8778 4.1003 12.7933C4.22696 12.7089 4.33252 12.6667 4.41696 12.6667H13.2836L13.157 13.8067H5.68363C5.51474 13.8067 5.36696 13.87 5.2403 13.9967C5.11363 14.1233 5.0503 14.2711 5.0503 14.44V24.7C5.0503 24.8689 5.11363 24.9956 5.2403 25.08C5.36696 25.1644 5.51474 25.2067 5.68363 25.2067C5.85252 25.2067 5.97918 25.1644 6.06363 25.08C6.14807 24.9956 6.1903 24.8689 6.1903 24.7V14.9467H12.397L11.0036 16.34C10.9192 16.4244 10.877 16.5089 10.877 16.5933L9.73696 23.56C9.65252 23.7289 9.71585 23.8767 9.92696 24.0033C10.1381 24.13 10.3281 24.1511 10.497 24.0667L14.9303 22.04L15.437 23.56L14.4236 25.7133L14.297 25.9667V27.74C13.7903 27.8244 13.3259 28.0778 12.9036 28.5C12.4814 28.9222 12.1859 29.4289 12.017 30.02H10.2436C9.65252 30.02 9.08252 30.2311 8.53363 30.6533C7.98474 31.0756 7.62585 31.6244 7.45696 32.3H6.1903V27.1067C6.1903 26.9378 6.14807 26.8111 6.06363 26.7267C5.97918 26.6422 5.85252 26.6 5.68363 26.6C5.51474 26.6 5.36696 26.6422 5.2403 26.7267C5.11363 26.8111 5.0503 26.9378 5.0503 27.1067V32.3H3.9103V13.1733ZM37.3503 35.2133C37.3503 35.6356 37.1814 36.0156 36.8436 36.3533C36.5059 36.6911 36.1259 36.86 35.7036 36.86H3.27696C2.85474 36.86 2.47474 36.6911 2.13696 36.3533C1.79918 36.0156 1.6303 35.6356 1.6303 35.2133V33.44H12.397L14.4236 35.5933C14.5925 35.6778 14.7614 35.72 14.9303 35.72H18.2236C18.3925 35.72 18.5403 35.6567 18.667 35.53C18.7936 35.4033 18.857 35.2767 18.857 35.15C18.857 35.0233 18.7936 34.8967 18.667 34.77C18.5403 34.6433 18.3925 34.58 18.2236 34.58H15.057L13.917 33.44H25.0636L23.9236 34.58H20.757C20.5881 34.58 20.4403 34.6433 20.3136 34.77C20.187 34.8967 20.1236 35.0233 20.1236 35.15C20.1236 35.2767 20.187 35.4033 20.3136 35.53C20.4403 35.6567 20.5881 35.72 20.757 35.72H24.0503C24.2192 35.72 24.3881 35.6778 24.557 35.5933L26.5836 33.44H37.3503V35.2133ZM19.4903 17.2267C20.5881 17.2267 21.5381 16.8467 22.3403 16.0867C23.1425 15.3267 23.5436 14.3767 23.5436 13.2367C23.5436 12.0967 23.1425 11.1467 22.3403 10.3867C21.5381 9.62667 20.5881 9.24667 19.4903 9.24667C18.3925 9.24667 17.4425 9.62667 16.6403 10.3867C15.8381 11.1467 15.437 12.0967 15.437 13.2367C15.437 14.3767 15.8381 15.3267 16.6403 16.0867C17.4425 16.8467 18.3925 17.2267 19.4903 17.2267ZM19.4903 10.3867C20.2503 10.3867 20.9258 10.6611 21.517 11.21C22.1081 11.7589 22.4036 12.4344 22.4036 13.2367C22.4036 14.0389 22.1081 14.7144 21.517 15.2633C20.9258 15.8122 20.2503 16.0867 19.4903 16.0867C18.7303 16.0867 18.0547 15.8122 17.4636 15.2633C16.8725 14.7144 16.577 14.0389 16.577 13.2367C16.577 12.4344 16.8725 11.7589 17.4636 11.21C18.0547 10.6611 18.7303 10.3867 19.4903 10.3867ZM19.4903 14.9467C19.997 14.9467 20.3981 14.7778 20.6936 14.44C20.9892 14.1022 21.137 13.7011 21.137 13.2367C21.137 12.7722 20.9892 12.3711 20.6936 12.0333C20.3981 11.6956 19.997 11.5267 19.4903 11.5267C18.9836 11.5267 18.5825 11.6956 18.287 12.0333C17.9914 12.3711 17.8436 12.7722 17.8436 13.2367C17.8436 13.7011 17.9914 14.1022 18.287 14.44C18.5825 14.7778 18.9836 14.9467 19.4903 14.9467ZM19.4903 12.6667C19.6592 12.6667 19.807 12.73 19.9336 12.8567C20.0603 12.9833 20.1236 13.11 20.1236 13.2367C20.1236 13.3633 20.0603 13.49 19.9336 13.6167C19.807 13.7433 19.6592 13.8067 19.4903 13.8067C19.3214 13.8067 19.1736 13.7433 19.047 13.6167C18.9203 13.49 18.857 13.3633 18.857 13.2367C18.857 13.11 18.9203 12.9833 19.047 12.8567C19.1736 12.73 19.3214 12.6667 19.4903 12.6667Z" fill="white"/>
</svg>
