<svg width="37" height="38" viewBox="0 0 37 38" fill="none" xmlns="http://www.w3.org/2000/svg">
<path d="M36.8765 19.1267C36.8765 18.2823 36.581 17.5645 35.9899 16.9734C35.3987 16.3823 34.681 16.0867 33.8365 16.0867C33.2454 16.0867 32.6965 16.2134 32.1899 16.4667V2.4067C32.1899 1.90003 32.021 1.47781 31.6832 1.14003C31.3454 0.802254 30.9232 0.633366 30.4165 0.633366H4.32319C3.81652 0.633366 3.37319 0.802254 2.99319 1.14003C2.61319 1.47781 2.42319 1.90003 2.42319 2.4067V7.7267H1.91652C1.40986 7.7267 0.987633 7.89559 0.649855 8.23337C0.312077 8.57114 0.143188 8.99337 0.143188 9.50003V19C0.143188 19.5067 0.312077 19.9289 0.649855 20.2667C0.987633 20.6045 1.40986 20.7734 1.91652 20.7734H2.42319V35.5934C2.42319 36.1 2.61319 36.5223 2.99319 36.86C3.37319 37.1978 3.81652 37.3667 4.32319 37.3667H30.4165C30.9232 37.3667 31.3454 37.1978 31.6832 36.86C32.021 36.5223 32.1899 36.1 32.1899 35.5934V25.2067L35.9899 21.4067C36.581 20.7311 36.8765 19.9711 36.8765 19.1267ZM4.32319 1.77337H30.4165C30.5854 1.77337 30.7121 1.8367 30.7965 1.96337C30.881 2.09003 30.9232 2.23781 30.9232 2.4067V5.32003H3.68986V2.4067C3.68986 2.23781 3.75319 2.09003 3.87986 1.96337C4.00652 1.8367 4.11208 1.77337 4.19652 1.77337H4.32319ZM1.28319 19V9.50003C1.28319 9.33114 1.34652 9.18337 1.47319 9.0567C1.59986 8.93003 1.74763 8.8667 1.91652 8.8667H14.9632C15.1321 8.8667 15.2799 8.93003 15.4065 9.0567C15.5332 9.18337 15.5965 9.33114 15.5965 9.50003V19C15.5965 19.1689 15.5332 19.3167 15.4065 19.4434C15.2799 19.57 15.1321 19.6334 14.9632 19.6334H1.91652C1.74763 19.6334 1.59986 19.57 1.47319 19.4434C1.34652 19.3167 1.28319 19.1689 1.28319 19ZM30.9232 35.5934C30.9232 35.7623 30.881 35.91 30.7965 36.0367C30.7121 36.1634 30.5854 36.2267 30.4165 36.2267H4.32319C4.1543 36.2267 4.00652 36.1634 3.87986 36.0367C3.75319 35.91 3.68986 35.7623 3.68986 35.5934V20.7734H14.9632C15.4699 20.7734 15.8921 20.6045 16.2299 20.2667C16.5676 19.9289 16.7365 19.5067 16.7365 19V9.50003C16.7365 8.99337 16.5676 8.57114 16.2299 8.23337C15.8921 7.89559 15.4699 7.7267 14.9632 7.7267H3.68986V6.5867H30.9232V17.6067L29.7832 18.7467V14.82H19.1432V20.7734H27.7565L18.5099 30.02L17.7499 35.0867L22.9432 34.4534L30.9232 26.3467V35.5934ZM19.5232 31.54L21.4232 33.44L19.2699 33.6934L19.5232 31.54ZM22.6899 33.06L21.6765 32.0467L31.5565 22.1667L32.5699 23.18L22.6899 33.06ZM20.9165 31.16L19.9032 30.2734L29.7832 20.3934L30.6699 21.4067L20.9165 31.16ZM28.6432 19.6334H20.2832V16.0867H28.6432V19.6334ZM35.1032 20.52L33.3299 22.2934L30.6699 19.6334L32.4432 17.7334C32.781 17.3956 33.2243 17.2267 33.7732 17.2267C34.3221 17.2267 34.7865 17.4167 35.1665 17.7967C35.5465 18.1767 35.7365 18.62 35.7365 19.1267C35.7365 19.6334 35.5254 20.0978 35.1032 20.52ZM6.60319 2.91337H7.86985V4.18003H6.60319V2.91337ZM4.32319 2.91337H5.46319V4.18003H4.32319V2.91337ZM9.00986 2.91337H10.1499V4.18003H9.00986V2.91337ZM6.72986 17.6067L9.00986 10.5134L10.1499 10.8934L7.74319 17.9867L6.72986 17.6067ZM10.9099 12.2867L12.9365 14.1867L10.9099 16.2134L11.7965 17.1L14.5832 14.1867L11.7965 11.4L10.9099 12.2867ZM5.08319 11.4L2.16986 14.1867L5.08319 17.1L5.84319 16.2134L3.94319 14.1867L5.84319 12.2867L5.08319 11.4ZM29.7832 7.7267H19.1432V13.68H29.7832V7.7267ZM28.6432 12.4134H20.2832V8.8667H28.6432V12.4134ZM4.82985 33.82H14.3299V35.0867H4.82985V33.82ZM4.82985 31.4134H16.7365V32.68H4.82985V31.4134ZM6.09652 30.2734H7.23652V29.1334H8.37652V27.8667H7.23652V21.9134H6.09652V27.8667H4.82985V29.1334H6.09652V30.2734ZM10.7832 30.2734H11.9232V24.32H13.1899V23.18H11.9232V21.9134H10.7832V23.18H9.64319V24.32H10.7832V30.2734ZM17.8765 26.7267V25.5867H16.7365V21.9134H15.5965V25.5867H14.3299V26.7267H15.5965V30.2734H16.7365V26.7267H17.8765ZM15.5965 33.82H16.7365V35.0867H15.5965V33.82ZM28.6432 29.1334H29.7832V30.2734H28.6432V29.1334ZM28.6432 33.82H29.7832V35.0867H28.6432V33.82ZM28.6432 31.4134H29.7832V32.68H28.6432V31.4134Z" fill="white"/>
</svg>
