<svg width="39" height="38" viewBox="0 0 39 38" fill="none" xmlns="http://www.w3.org/2000/svg">
<g clip-path="url(#clip0_79_549)">
<path d="M36.3871 27.2335H19.4183L32.0816 15.7069C32.4193 15.4535 32.6092 15.0735 32.6515 14.5669C32.6937 14.0602 32.5459 13.638 32.2082 13.3002L27.3962 7.9802C27.0585 7.64242 26.6575 7.45243 26.1932 7.4102C25.7288 7.36798 25.3278 7.51576 24.9901 7.85353L15.6193 16.3402L18.9117 4.1802C19.0806 3.75798 19.0384 3.33576 18.7851 2.91354C18.5318 2.49131 18.1941 2.19576 17.772 2.02687L10.8072 0.126869C10.3851 0.0424232 9.96298 0.105759 9.54087 0.316868C9.11875 0.527981 8.82328 0.886868 8.65443 1.39354L0.549898 30.5269C0.296632 31.118 0.169998 31.7935 0.169998 32.5535C0.169998 34.0735 0.697637 35.3402 1.75292 36.3535C2.80819 37.3669 4.05342 37.8735 5.4886 37.8735H36.3871C36.8937 37.8735 37.3158 37.7046 37.6535 37.3669C37.9912 37.0291 38.16 36.6491 38.16 36.2269V29.0069C38.16 28.5002 37.9912 28.078 37.6535 27.7402C37.3158 27.4024 36.8937 27.2335 36.3871 27.2335ZM23.7238 35.3402C23.555 35.3402 23.4283 35.3824 23.3439 35.4669C23.2595 35.5513 23.2173 35.678 23.2173 35.8469V36.8602H19.6715V28.3735H23.2173V33.6935C23.2173 33.8624 23.2595 33.9891 23.3439 34.0735C23.4283 34.158 23.555 34.2002 23.7238 34.2002C23.8926 34.2002 24.0404 34.158 24.167 34.0735C24.2936 33.9891 24.357 33.8624 24.357 33.6935V28.3735H27.7761V36.8602H24.357V35.8469C24.357 35.678 24.2936 35.5513 24.167 35.4669C24.0404 35.3824 23.8926 35.3402 23.7238 35.3402ZM3.71573 23.3069L6.88157 24.1935L2.32277 28.2469L3.71573 23.3069ZM4.98207 18.8735L10.9338 20.5202L7.89463 23.3069L3.969 22.1669L4.98207 18.8735ZM15.8725 17.6069L21.571 23.8135L19.0384 26.2202L13.3399 19.8869L15.8725 17.6069ZM19.2916 14.4402L24.9901 20.7735L22.4575 23.0535L16.759 16.8469L19.2916 14.4402ZM22.7107 11.4002L28.4092 17.6069L25.8766 20.0135L20.1781 13.6802L22.7107 11.4002ZM17.772 27.2335H13.7198L9.92077 23.0535L12.4534 20.6469L18.1519 26.9802L17.772 27.2335ZM9.03433 23.6869L12.2002 27.2335H5.23533L9.03433 23.6869ZM13.973 28.3735V36.8602H10.4273V28.3735H13.973ZM15.1127 28.3735H18.5318V36.8602H15.1127V28.3735ZM28.9158 28.3735H32.4615V36.8602H28.9158V28.3735ZM25.7499 8.61353C25.8344 8.52909 25.961 8.48687 26.1298 8.48687C26.2987 8.48687 26.4675 8.57131 26.6364 8.7402L31.4484 14.0602C31.5329 14.1446 31.5751 14.2924 31.5751 14.5035C31.5751 14.7146 31.4906 14.8624 31.3218 14.9469L29.2957 16.8469L23.5972 10.6402L25.7499 8.61353ZM11.9469 19.6335L5.23533 17.7335L6.2484 14.4402L14.3529 16.7202L14.0997 17.7335L11.9469 19.6335ZM7.3881 10.0069L9.6675 10.5135L9.79413 10.6402C10.0474 10.6402 10.2162 10.5346 10.3007 10.3235C10.3851 10.1124 10.3851 9.92242 10.3007 9.75354C10.2162 9.58465 10.0896 9.5002 9.92077 9.5002L7.768 8.86687L8.65443 5.44687L16.759 7.72687L15.8725 11.1469L11.8203 10.0069C11.7358 10.0069 11.6303 10.028 11.5037 10.0702C11.377 10.1124 11.2926 10.218 11.2504 10.3869C11.2082 10.5558 11.2082 10.7035 11.2504 10.8302C11.2926 10.9569 11.3982 11.0624 11.567 11.1469L15.6193 12.1602L14.6062 15.5802L6.50167 13.3002L7.3881 10.0069ZM9.79413 1.64687C9.79413 1.47798 9.87855 1.35131 10.0474 1.26687C10.2162 1.18242 10.3851 1.18242 10.5539 1.26687L17.3921 3.16687C17.561 3.16687 17.6876 3.25131 17.772 3.4202C17.8565 3.58909 17.8987 3.75798 17.8987 3.92687L17.1389 6.71354L8.9077 4.43354L9.79413 1.64687ZM1.3097 32.5535C1.3097 31.3713 1.7107 30.3791 2.51272 29.5769C3.31473 28.7746 4.30669 28.3735 5.4886 28.3735H9.41423V36.8602H5.4886C4.30669 36.8602 3.31473 36.438 2.51272 35.5935C1.7107 34.7491 1.3097 33.7358 1.3097 32.5535ZM37.0203 36.2269C37.0203 36.3958 36.957 36.5435 36.8304 36.6702C36.7037 36.7969 36.556 36.8602 36.3871 36.8602H33.6012V28.3735H36.3871C36.556 28.3735 36.7037 28.4369 36.8304 28.5635C36.957 28.6902 37.0203 28.838 37.0203 29.0069V36.2269ZM5.61523 30.4002C5.02428 30.4002 4.51774 30.6113 4.09563 31.0335C3.67352 31.4558 3.46247 31.9624 3.46247 32.5535C3.46247 33.1446 3.67352 33.6513 4.09563 34.0735C4.51774 34.4958 5.02428 34.7069 5.61523 34.7069C6.20619 34.7069 6.71272 34.4958 7.13483 34.0735C7.55694 33.6513 7.768 33.1446 7.768 32.5535C7.768 31.9624 7.55694 31.4558 7.13483 31.0335C6.71272 30.6113 6.20619 30.4002 5.61523 30.4002ZM5.61523 33.5669C5.36197 33.5669 5.1298 33.4613 4.91875 33.2502C4.70769 33.0391 4.60217 32.8069 4.60217 32.5535C4.60217 32.3002 4.70769 32.068 4.91875 31.8569C5.1298 31.6458 5.36197 31.5402 5.61523 31.5402C5.8685 31.5402 6.10066 31.6458 6.31172 31.8569C6.52277 32.068 6.6283 32.3002 6.6283 32.5535C6.6283 32.8069 6.52277 33.0391 6.31172 33.2502C6.10066 33.4613 5.8685 33.5669 5.61523 33.5669Z" fill="white"/>
</g>
<defs>
<clipPath id="clip0_79_549">
<rect width="38.01" height="38" fill="white" transform="matrix(1 0 0 -1 0.159998 38)"/>
</clipPath>
</defs>
</svg>
